<svg width="624" height="257" xmlns="http://www.w3.org/2000/svg" xmlns:xlink="http://www.w3.org/1999/xlink" xml:space="preserve" overflow="hidden"><defs><clipPath id="clip0"><rect x="0" y="0" width="624" height="257"/></clipPath><clipPath id="clip1"><rect x="35" y="10" width="582" height="142"/></clipPath><clipPath id="clip2"><rect x="35" y="10" width="582" height="142"/></clipPath></defs><g clip-path="url(#clip0)"><path d="M115.477 76.7261 738.585 76.7261 738.585 354.18 115.477 354.18Z" fill="#FFFFFF" transform="matrix(1.00143 0 0 1 -115.642 -76.7261)"/><path d="M151.515 210.415 730.448 210.415M151.515 192.59 730.448 192.59M151.515 175.54 730.448 175.54M151.515 157.715 730.448 157.715M151.515 139.889 730.448 139.889M151.515 122.064 730.448 122.064M151.515 104.239 730.448 104.239M151.515 87.1887 730.448 87.1887" stroke="#D9D9D9" stroke-width="0.581258" stroke-linecap="square" stroke-linejoin="round" stroke-miterlimit="10" stroke-dasharray="1.74377 0.581258" fill="none" transform="matrix(1.00143 0 0 1 -115.642 -76.7261)"/><g clip-path="url(#clip1)"><path d="M152.677 123.227 161.202 123.227 161.202 227.853 152.677 227.853ZM162.752 144.152 171.277 144.152 171.277 227.853 162.752 227.853ZM173.602 178.253 182.128 178.253 182.128 227.853 173.602 227.853ZM183.678 183.678 192.203 183.678 192.203 227.853 183.678 227.853ZM193.753 189.878 202.278 189.878 202.278 227.853 193.753 227.853ZM204.603 194.528 213.128 194.528 213.128 227.853 204.603 227.853ZM214.678 195.303 223.203 195.303 223.203 227.853 214.678 227.853ZM224.753 196.853 233.278 196.853 233.278 227.853 224.753 227.853ZM235.603 199.178 244.128 199.178 244.128 227.853 235.603 227.853ZM245.678 199.953 254.204 199.953 254.204 227.853 245.678 227.853ZM255.754 199.953 264.279 199.953 264.279 227.853 255.754 227.853ZM266.604 202.278 275.129 202.278 275.129 227.853 266.604 227.853ZM276.679 205.378 285.204 205.378 285.204 227.853 276.679 227.853ZM286.754 205.378 295.279 205.378 295.279 227.853 286.754 227.853ZM297.604 205.378 306.129 205.378 306.129 227.853 297.604 227.853ZM307.679 206.153 316.204 206.153 316.204 227.853 307.679 227.853ZM317.754 207.703 326.28 207.703 326.28 227.853 317.754 227.853ZM328.605 211.578 337.13 211.578 337.13 227.853 328.605 227.853ZM338.68 212.353 347.205 212.353 347.205 227.853 338.68 227.853ZM348.755 212.353 357.28 212.353 357.28 227.853 348.755 227.853ZM359.605 213.903 368.13 213.903 368.13 227.853 359.605 227.853ZM369.68 214.678 378.205 214.678 378.205 227.853 369.68 227.853ZM379.755 215.453 388.28 215.453 388.28 227.853 379.755 227.853ZM390.605 215.453 399.131 215.453 399.131 227.853 390.605 227.853ZM400.681 216.228 409.206 216.228 409.206 227.853 400.681 227.853ZM410.756 217.003 419.281 217.003 419.281 227.853 410.756 227.853ZM421.606 217.778 430.131 217.778 430.131 227.853 421.606 227.853ZM431.681 217.778 440.206 217.778 440.206 227.853 431.681 227.853ZM441.756 218.553 450.281 218.553 450.281 227.853 441.756 227.853ZM452.606 218.553 461.131 218.553 461.131 227.853 452.606 227.853ZM462.681 218.553 471.207 218.553 471.207 227.853 462.681 227.853ZM472.757 218.553 481.282 218.553 481.282 227.853 472.757 227.853ZM483.607 218.553 491.357 218.553 491.357 227.853 483.607 227.853ZM493.682 220.103 502.207 220.103 502.207 227.853 493.682 227.853ZM503.757 220.878 512.282 220.878 512.282 227.853 503.757 227.853ZM514.607 221.653 522.357 221.653 522.357 227.853 514.607 227.853ZM524.682 222.428 533.207 222.428 533.207 227.853 524.682 227.853ZM534.758 222.428 543.283 222.428 543.283 227.853 534.758 227.853ZM545.608 223.203 553.358 223.203 553.358 227.853 545.608 227.853ZM555.683 223.203 564.208 223.203 564.208 227.853 555.683 227.853ZM565.758 223.203 574.283 223.203 574.283 227.853 565.758 227.853ZM576.608 223.978 584.358 223.978 584.358 227.853 576.608 227.853ZM586.683 223.978 595.208 223.978 595.208 227.853 586.683 227.853ZM596.758 224.753 605.284 224.753 605.284 227.853 596.758 227.853ZM607.609 224.753 615.359 224.753 615.359 227.853 607.609 227.853ZM617.684 224.753 626.209 224.753 626.209 227.853 617.684 227.853ZM627.759 226.303 636.284 226.303 636.284 227.853 627.759 227.853ZM638.609 226.303 646.359 226.303 646.359 227.853 638.609 227.853ZM648.684 226.303 657.209 226.303 657.209 227.853 648.684 227.853ZM658.759 226.303 667.284 226.303 667.284 227.853 658.759 227.853ZM669.609 227.078 677.359 227.078 677.359 227.853 669.609 227.853ZM679.685 227.078 688.21 227.078 688.21 227.853 679.685 227.853ZM689.76 227.078 698.285 227.078 698.285 227.853 689.76 227.853ZM700.61 227.078 708.36 227.078 708.36 227.853 700.61 227.853ZM710.685 227.078 719.21 227.078 719.21 227.853 710.685 227.853ZM720.76 227.078 729.285 227.078 729.285 227.853 720.76 227.853Z" fill="#4472C4" transform="matrix(1.00143 0 0 1 -115.642 -76.7261)"/></g><g clip-path="url(#clip2)"><path d="M152.677 98.4264 161.202 98.4264 161.202 123.227 152.677 123.227ZM162.752 111.602 171.277 111.602 171.277 144.152 162.752 144.152ZM173.602 152.677 182.128 152.677 182.128 178.253 173.602 178.253ZM183.678 159.652 192.203 159.652 192.203 183.678 183.678 183.678ZM193.753 169.727 202.278 169.727 202.278 189.878 193.753 189.878ZM204.603 173.602 213.128 173.602 213.128 194.528 204.603 194.528ZM214.678 178.253 223.203 178.253 223.203 195.303 214.678 195.303ZM224.753 182.128 233.278 182.128 233.278 196.853 224.753 196.853ZM235.603 180.578 244.128 180.578 244.128 199.178 235.603 199.178ZM245.678 189.878 254.204 189.878 254.204 199.953 245.678 199.953ZM255.754 179.028 264.279 179.028 264.279 199.953 255.754 199.953ZM266.604 183.678 275.129 183.678 275.129 202.278 266.604 202.278ZM276.679 191.428 285.204 191.428 285.204 205.378 276.679 205.378ZM286.754 192.978 295.279 192.978 295.279 205.378 286.754 205.378ZM297.604 191.428 306.129 191.428 306.129 205.378 297.604 205.378ZM307.679 190.653 316.204 190.653 316.204 206.153 307.679 206.153ZM317.754 196.853 326.28 196.853 326.28 207.703 317.754 207.703ZM328.605 198.403 337.13 198.403 337.13 211.578 328.605 211.578ZM338.68 199.178 347.205 199.178 347.205 212.353 338.68 212.353ZM348.755 202.278 357.28 202.278 357.28 212.353 348.755 212.353ZM359.605 203.053 368.13 203.053 368.13 213.903 359.605 213.903ZM369.68 204.603 378.205 204.603 378.205 214.678 369.68 214.678ZM379.755 204.603 388.28 204.603 388.28 215.453 379.755 215.453ZM390.605 205.378 399.131 205.378 399.131 215.453 390.605 215.453ZM400.681 213.128 409.206 213.128 409.206 216.228 400.681 216.228ZM410.756 206.928 419.281 206.928 419.281 217.003 410.756 217.003ZM421.606 208.478 430.131 208.478 430.131 217.778 421.606 217.778ZM431.681 208.478 440.206 208.478 440.206 217.778 431.681 217.778ZM441.756 214.678 450.281 214.678 450.281 218.553 441.756 218.553ZM452.606 210.028 461.131 210.028 461.131 218.553 452.606 218.553ZM462.681 209.253 471.207 209.253 471.207 218.553 462.681 218.553ZM472.757 210.803 481.282 210.803 481.282 218.553 472.757 218.553ZM483.607 210.803 491.357 210.803 491.357 218.553 483.607 218.553ZM493.682 213.128 502.207 213.128 502.207 220.103 493.682 220.103ZM503.757 217.003 512.282 217.003 512.282 220.878 503.757 220.878ZM514.607 216.228 522.357 216.228 522.357 221.653 514.607 221.653ZM524.682 217.778 533.207 217.778 533.207 222.428 524.682 222.428ZM534.758 217.003 543.283 217.003 543.283 222.428 534.758 222.428ZM545.608 218.553 553.358 218.553 553.358 223.203 545.608 223.203ZM555.683 218.553 564.208 218.553 564.208 223.203 555.683 223.203ZM565.758 218.553 574.283 218.553 574.283 223.203 565.758 223.203ZM576.608 220.878 584.358 220.878 584.358 223.978 576.608 223.978ZM586.683 220.878 595.208 220.878 595.208 223.978 586.683 223.978ZM596.758 221.653 605.284 221.653 605.284 224.753 596.758 224.753ZM607.609 221.653 615.359 221.653 615.359 224.753 607.609 224.753ZM617.684 222.428 626.209 222.428 626.209 224.753 617.684 224.753ZM627.759 223.978 636.284 223.978 636.284 226.303 627.759 226.303ZM638.609 224.753 646.359 224.753 646.359 226.303 638.609 226.303ZM648.684 224.753 657.209 224.753 657.209 226.303 648.684 226.303ZM658.759 225.528 667.284 225.528 667.284 226.303 658.759 226.303ZM669.609 225.528 677.359 225.528 677.359 227.078 669.609 227.078ZM679.685 225.528 688.21 225.528 688.21 227.078 679.685 227.078ZM689.76 226.303 698.285 226.303 698.285 227.078 689.76 227.078ZM700.61 226.303 708.36 226.303 708.36 227.078 700.61 227.078ZM710.685 226.303 719.21 226.303 719.21 227.078 710.685 227.078ZM720.76 226.303 729.285 226.303 729.285 227.078 720.76 227.078Z" fill="#ED7D31" transform="matrix(1.00143 0 0 1 -115.642 -76.7261)"/></g><path d="M151.515 228.241 730.448 228.241" stroke="#D9D9D9" stroke-width="0.581258" stroke-linejoin="round" stroke-miterlimit="10" fill="none" fill-rule="evenodd" transform="matrix(1.00143 0 0 1 -115.642 -76.7261)"/><text fill="#595959" font-family="Times New Roman,Times New Roman_MSFontService,sans-serif" font-weight="400" font-size="14" transform="matrix(0.776119 0 0 0.775011 21.6017 154)">0</text><text fill="#595959" font-family="Times New Roman,Times New Roman_MSFontService,sans-serif" font-weight="400" font-size="14" transform="matrix(0.776119 0 0 0.775011 5.30322 136)">1000</text><text fill="#595959" font-family="Times New Roman,Times New Roman_MSFontService,sans-serif" font-weight="400" font-size="14" transform="matrix(0.776119 0 0 0.775011 5.30322 119)">2000</text><text fill="#595959" font-family="Times New Roman,Times New Roman_MSFontService,sans-serif" font-weight="400" font-size="14" transform="matrix(0.776119 0 0 0.775011 5.30322 102)">3000</text><text fill="#595959" font-family="Times New Roman,Times New Roman_MSFontService,sans-serif" font-weight="400" font-size="14" transform="matrix(0.776119 0 0 0.775011 5.30322 84)">4000</text><text fill="#595959" font-family="Times New Roman,Times New Roman_MSFontService,sans-serif" font-weight="400" font-size="14" transform="matrix(0.776119 0 0 0.775011 5.30322 66)">5000</text><text fill="#595959" font-family="Times New Roman,Times New Roman_MSFontService,sans-serif" font-weight="400" font-size="14" transform="matrix(0.776119 0 0 0.775011 5.30322 48)">6000</text><text fill="#595959" font-family="Times New Roman,Times New Roman_MSFontService,sans-serif" font-weight="400" font-size="14" transform="matrix(0.776119 0 0 0.775011 5.30322 31)">7000</text><text fill="#595959" font-family="Times New Roman,Times New Roman_MSFontService,sans-serif" font-weight="400" font-size="14" transform="matrix(0.776119 0 0 0.775011 5.30322 13)">8000</text><text fill="#595959" font-family="Times New Roman,Times New Roman_MSFontService,sans-serif" font-weight="400" font-size="12" transform="matrix(4.75236e-17 -0.775011 0.776119 4.74557e-17 44.8325 182)">handle</text><text fill="#595959" font-family="Times New Roman,Times New Roman_MSFontService,sans-serif" font-weight="400" font-size="12" transform="matrix(4.75236e-17 -0.775011 0.776119 4.74557e-17 55.1798 176)">chair</text><text fill="#595959" font-family="Times New Roman,Times New Roman_MSFontService,sans-serif" font-weight="400" font-size="12" transform="matrix(4.75236e-17 -0.775011 0.776119 4.74557e-17 65.527 192)">dispenser</text><text fill="#595959" font-family="Times New Roman,Times New Roman_MSFontService,sans-serif" font-weight="400" font-size="12" transform="matrix(4.75236e-17 -0.775011 0.776119 4.74557e-17 75.8742 219)">bedside</text><text fill="#595959" font-family="Times New Roman,Times New Roman_MSFontService,sans-serif" font-weight="400" font-size="12" transform="matrix(4.75236e-17 -0.775011 0.776119 4.74557e-17 75.8742 191)">_</text><text fill="#595959" font-family="Times New Roman,Times New Roman_MSFontService,sans-serif" font-weight="400" font-size="12" transform="matrix(4.75236e-17 -0.775011 0.776119 4.74557e-17 75.8742 187)">monitor</text><text fill="#595959" font-family="Times New Roman,Times New Roman_MSFontService,sans-serif" font-weight="400" font-size="12" transform="matrix(4.75236e-17 -0.775011 0.776119 4.74557e-17 86.2214 192)">computer</text><text fill="#595959" font-family="Times New Roman,Times New Roman_MSFontService,sans-serif" font-weight="400" font-size="12" transform="matrix(4.75236e-17 -0.775011 0.776119 4.74557e-17 96.5687 185)">iv</text><text fill="#595959" font-family="Times New Roman,Times New Roman_MSFontService,sans-serif" font-weight="400" font-size="12" transform="matrix(4.75236e-17 -0.775011 0.776119 4.74557e-17 96.5687 178)">_</text><text fill="#595959" font-family="Times New Roman,Times New Roman_MSFontService,sans-serif" font-weight="400" font-size="12" transform="matrix(4.75236e-17 -0.775011 0.776119 4.74557e-17 96.5687 174)">pole</text><text fill="#595959" font-family="Times New Roman,Times New Roman_MSFontService,sans-serif" font-weight="400" font-size="12" transform="matrix(4.75236e-17 -0.775011 0.776119 4.74557e-17 106.916 174)">staff</text><text fill="#595959" font-family="Times New Roman,Times New Roman_MSFontService,sans-serif" font-weight="400" font-size="12" transform="matrix(4.75236e-17 -0.775011 0.776119 4.74557e-17 117.263 183)">bedrail</text><text fill="#595959" font-family="Times New Roman,Times New Roman_MSFontService,sans-serif" font-weight="400" font-size="12" transform="matrix(4.75236e-17 -0.775011 0.776119 4.74557e-17 127.61 204)">door</text><text fill="#595959" font-family="Times New Roman,Times New Roman_MSFontService,sans-serif" font-weight="400" font-size="12" transform="matrix(4.75236e-17 -0.775011 0.776119 4.74557e-17 127.61 187)">_</text><text fill="#595959" font-family="Times New Roman,Times New Roman_MSFontService,sans-serif" font-weight="400" font-size="12" transform="matrix(4.75236e-17 -0.775011 0.776119 4.74557e-17 127.61 182)">handle</text><text fill="#595959" font-family="Times New Roman,Times New Roman_MSFontService,sans-serif" font-weight="400" font-size="12" transform="matrix(4.75236e-17 -0.775011 0.776119 4.74557e-17 137.958 228)">hallway</text><text fill="#595959" font-family="Times New Roman,Times New Roman_MSFontService,sans-serif" font-weight="400" font-size="12" transform="matrix(4.75236e-17 -0.775011 0.776119 4.74557e-17 137.958 198)">_</text><text fill="#595959" font-family="Times New Roman,Times New Roman_MSFontService,sans-serif" font-weight="400" font-size="12" transform="matrix(4.75236e-17 -0.775011 0.776119 4.74557e-17 137.958 194)">assist</text><text fill="#595959" font-family="Times New Roman,Times New Roman_MSFontService,sans-serif" font-weight="400" font-size="12" transform="matrix(4.75236e-17 -0.775011 0.776119 4.74557e-17 137.958 173)">_</text><text fill="#595959" font-family="Times New Roman,Times New Roman_MSFontService,sans-serif" font-weight="400" font-size="12" transform="matrix(4.75236e-17 -0.775011 0.776119 4.74557e-17 137.958 168)">bar</text><text fill="#595959" font-family="Times New Roman,Times New Roman_MSFontService,sans-serif" font-weight="400" font-size="12" transform="matrix(4.75236e-17 -0.775011 0.776119 4.74557e-17 148.305 205)">hospital</text><text fill="#595959" font-family="Times New Roman,Times New Roman_MSFontService,sans-serif" font-weight="400" font-size="12" transform="matrix(4.75236e-17 -0.775011 0.776119 4.74557e-17 148.305 174)">_</text><text fill="#595959" font-family="Times New Roman,Times New Roman_MSFontService,sans-serif" font-weight="400" font-size="12" transform="matrix(4.75236e-17 -0.775011 0.776119 4.74557e-17 148.305 170)">bed</text><text fill="#595959" font-family="Times New Roman,Times New Roman_MSFontService,sans-serif" font-weight="400" font-size="12" transform="matrix(4.75236e-17 -0.775011 0.776119 4.74557e-17 158.652 197)">countertop</text><text fill="#595959" font-family="Times New Roman,Times New Roman_MSFontService,sans-serif" font-weight="400" font-size="12" transform="matrix(4.75236e-17 -0.775011 0.776119 4.74557e-17 168.998 183)">curtain</text><text fill="#595959" font-family="Times New Roman,Times New Roman_MSFontService,sans-serif" font-weight="400" font-size="12" transform="matrix(4.75236e-17 -0.775011 0.776119 4.74557e-17 179.346 175)">table</text><text fill="#595959" font-family="Times New Roman,Times New Roman_MSFontService,sans-serif" font-weight="400" font-size="12" transform="matrix(4.75236e-17 -0.775011 0.776119 4.74557e-17 189.693 173)">sofa</text><text fill="#595959" font-family="Times New Roman,Times New Roman_MSFontService,sans-serif" font-weight="400" font-size="12" transform="matrix(4.75236e-17 -0.775011 0.776119 4.74557e-17 200.04 195)">waste</text><text fill="#595959" font-family="Times New Roman,Times New Roman_MSFontService,sans-serif" font-weight="400" font-size="12" transform="matrix(4.75236e-17 -0.775011 0.776119 4.74557e-17 200.04 173)">_</text><text fill="#595959" font-family="Times New Roman,Times New Roman_MSFontService,sans-serif" font-weight="400" font-size="12" transform="matrix(4.75236e-17 -0.775011 0.776119 4.74557e-17 200.04 168)">bin</text><text fill="#595959" font-family="Times New Roman,Times New Roman_MSFontService,sans-serif" font-weight="400" font-size="12" transform="matrix(4.75236e-17 -0.775011 0.776119 4.74557e-17 210.387 208)">surgical</text><text fill="#595959" font-family="Times New Roman,Times New Roman_MSFontService,sans-serif" font-weight="400" font-size="12" transform="matrix(4.75236e-17 -0.775011 0.776119 4.74557e-17 210.387 181)">_</text><text fill="#595959" font-family="Times New Roman,Times New Roman_MSFontService,sans-serif" font-weight="400" font-size="12" transform="matrix(4.75236e-17 -0.775011 0.776119 4.74557e-17 210.387 176)">light</text><text fill="#595959" font-family="Times New Roman,Times New Roman_MSFontService,sans-serif" font-weight="400" font-size="12" transform="matrix(4.75236e-17 -0.775011 0.776119 4.74557e-17 220.735 198)">utility</text><text fill="#595959" font-family="Times New Roman,Times New Roman_MSFontService,sans-serif" font-weight="400" font-size="12" transform="matrix(4.75236e-17 -0.775011 0.776119 4.74557e-17 220.735 174)">_</text><text fill="#595959" font-family="Times New Roman,Times New Roman_MSFontService,sans-serif" font-weight="400" font-size="12" transform="matrix(4.75236e-17 -0.775011 0.776119 4.74557e-17 220.735 170)">cart</text><text fill="#595959" font-family="Times New Roman,Times New Roman_MSFontService,sans-serif" font-weight="400" font-size="12" transform="matrix(4.75236e-17 -0.775011 0.776119 4.74557e-17 231.082 184)">cabinet</text><text fill="#595959" font-family="Times New Roman,Times New Roman_MSFontService,sans-serif" font-weight="400" font-size="12" transform="matrix(4.75236e-17 -0.775011 0.776119 4.74557e-17 241.429 185)">counter</text><text fill="#595959" font-family="Times New Roman,Times New Roman_MSFontService,sans-serif" font-weight="400" font-size="12" transform="matrix(4.75236e-17 -0.775011 0.776119 4.74557e-17 251.776 217)">medical</text><text fill="#595959" font-family="Times New Roman,Times New Roman_MSFontService,sans-serif" font-weight="400" font-size="12" transform="matrix(4.75236e-17 -0.775011 0.776119 4.74557e-17 251.776 189)">_</text><text fill="#595959" font-family="Times New Roman,Times New Roman_MSFontService,sans-serif" font-weight="400" font-size="12" transform="matrix(4.75236e-17 -0.775011 0.776119 4.74557e-17 251.776 184)">drawer</text><text fill="#595959" font-family="Times New Roman,Times New Roman_MSFontService,sans-serif" font-weight="400" font-size="12" transform="matrix(4.75236e-17 -0.775011 0.776119 4.74557e-17 262.123 170)">TV</text><text fill="#595959" font-family="Times New Roman,Times New Roman_MSFontService,sans-serif" font-weight="400" font-size="12" transform="matrix(4.75236e-17 -0.775011 0.776119 4.74557e-17 272.471 191)">keyboard</text><text fill="#595959" font-family="Times New Roman,Times New Roman_MSFontService,sans-serif" font-weight="400" font-size="12" transform="matrix(4.75236e-17 -0.775011 0.776119 4.74557e-17 282.818 180)">faucet</text><text fill="#595959" font-family="Times New Roman,Times New Roman_MSFontService,sans-serif" font-weight="400" font-size="12" transform="matrix(4.75236e-17 -0.775011 0.776119 4.74557e-17 293.165 210)">syringe</text><text fill="#595959" font-family="Times New Roman,Times New Roman_MSFontService,sans-serif" font-weight="400" font-size="12" transform="matrix(4.75236e-17 -0.775011 0.776119 4.74557e-17 293.165 183)">_</text><text fill="#595959" font-family="Times New Roman,Times New Roman_MSFontService,sans-serif" font-weight="400" font-size="12" transform="matrix(4.75236e-17 -0.775011 0.776119 4.74557e-17 293.165 178)">pump</text><text fill="#595959" font-family="Times New Roman,Times New Roman_MSFontService,sans-serif" font-weight="400" font-size="12" transform="matrix(4.75236e-17 -0.775011 0.776119 4.74557e-17 303.512 173)">sink</text><text fill="#595959" font-family="Times New Roman,Times New Roman_MSFontService,sans-serif" font-weight="400" font-size="12" transform="matrix(4.75236e-17 -0.775011 0.776119 4.74557e-17 313.86 198)">foot</text><text fill="#595959" font-family="Times New Roman,Times New Roman_MSFontService,sans-serif" font-weight="400" font-size="12" transform="matrix(4.75236e-17 -0.775011 0.776119 4.74557e-17 313.86 182)">_</text><text fill="#595959" font-family="Times New Roman,Times New Roman_MSFontService,sans-serif" font-weight="400" font-size="12" transform="matrix(4.75236e-17 -0.775011 0.776119 4.74557e-17 313.86 177)">board</text><text fill="#595959" font-family="Times New Roman,Times New Roman_MSFontService,sans-serif" font-weight="400" font-size="12" transform="matrix(4.75236e-17 -0.775011 0.776119 4.74557e-17 324.207 210)">overbed</text><text fill="#595959" font-family="Times New Roman,Times New Roman_MSFontService,sans-serif" font-weight="400" font-size="12" transform="matrix(4.75236e-17 -0.775011 0.776119 4.74557e-17 324.207 181)">_</text><text fill="#595959" font-family="Times New Roman,Times New Roman_MSFontService,sans-serif" font-weight="400" font-size="12" transform="matrix(4.75236e-17 -0.775011 0.776119 4.74557e-17 324.207 176)">table</text><text fill="#595959" font-family="Times New Roman,Times New Roman_MSFontService,sans-serif" font-weight="400" font-size="12" transform="matrix(4.75236e-17 -0.775011 0.776119 4.74557e-17 334.554 182)">patient</text><text fill="#595959" font-family="Times New Roman,Times New Roman_MSFontService,sans-serif" font-weight="400" font-size="12" transform="matrix(4.75236e-17 -0.775011 0.776119 4.74557e-17 344.901 232)">restroom</text><text fill="#595959" font-family="Times New Roman,Times New Roman_MSFontService,sans-serif" font-weight="400" font-size="12" transform="matrix(4.75236e-17 -0.775011 0.776119 4.74557e-17 344.901 198)">_</text><text fill="#595959" font-family="Times New Roman,Times New Roman_MSFontService,sans-serif" font-weight="400" font-size="12" transform="matrix(4.75236e-17 -0.775011 0.776119 4.74557e-17 344.901 194)">assist</text><text fill="#595959" font-family="Times New Roman,Times New Roman_MSFontService,sans-serif" font-weight="400" font-size="12" transform="matrix(4.75236e-17 -0.775011 0.776119 4.74557e-17 344.901 173)">_</text><text fill="#595959" font-family="Times New Roman,Times New Roman_MSFontService,sans-serif" font-weight="400" font-size="12" transform="matrix(4.75236e-17 -0.775011 0.776119 4.74557e-17 344.901 168)">bar</text><text fill="#595959" font-family="Times New Roman,Times New Roman_MSFontService,sans-serif" font-weight="400" font-size="12" transform="matrix(4.75236e-17 -0.775011 0.776119 4.74557e-17 355.248 210)">operating</text><text fill="#595959" font-family="Times New Roman,Times New Roman_MSFontService,sans-serif" font-weight="400" font-size="12" transform="matrix(4.75236e-17 -0.775011 0.776119 4.74557e-17 355.248 175)">_</text><text fill="#595959" font-family="Times New Roman,Times New Roman_MSFontService,sans-serif" font-weight="400" font-size="12" transform="matrix(4.75236e-17 -0.775011 0.776119 4.74557e-17 355.248 171)">bed</text><text fill="#595959" font-family="Times New Roman,Times New Roman_MSFontService,sans-serif" font-weight="400" font-size="12" transform="matrix(4.75236e-17 -0.775011 0.776119 4.74557e-17 365.596 181)">mouse</text><text fill="#595959" font-family="Times New Roman,Times New Roman_MSFontService,sans-serif" font-weight="400" font-size="12" transform="matrix(4.75236e-17 -0.775011 0.776119 4.74557e-17 375.942 193)">telephone</text><text fill="#595959" font-family="Times New Roman,Times New Roman_MSFontService,sans-serif" font-weight="400" font-size="12" transform="matrix(4.75236e-17 -0.775011 0.776119 4.74557e-17 386.289 213)">breathing</text><text fill="#595959" font-family="Times New Roman,Times New Roman_MSFontService,sans-serif" font-weight="400" font-size="12" transform="matrix(4.75236e-17 -0.775011 0.776119 4.74557e-17 386.289 179)">_</text><text fill="#595959" font-family="Times New Roman,Times New Roman_MSFontService,sans-serif" font-weight="400" font-size="12" transform="matrix(4.75236e-17 -0.775011 0.776119 4.74557e-17 386.289 174)">tube</text><text fill="#595959" font-family="Times New Roman,Times New Roman_MSFontService,sans-serif" font-weight="400" font-size="12" transform="matrix(4.75236e-17 -0.775011 0.776119 4.74557e-17 396.637 182)">person</text><text fill="#595959" font-family="Times New Roman,Times New Roman_MSFontService,sans-serif" font-weight="400" font-size="12" transform="matrix(4.75236e-17 -0.775011 0.776119 4.74557e-17 406.984 213)">infusion</text><text fill="#595959" font-family="Times New Roman,Times New Roman_MSFontService,sans-serif" font-weight="400" font-size="12" transform="matrix(4.75236e-17 -0.775011 0.776119 4.74557e-17 406.984 183)">_</text><text fill="#595959" font-family="Times New Roman,Times New Roman_MSFontService,sans-serif" font-weight="400" font-size="12" transform="matrix(4.75236e-17 -0.775011 0.776119 4.74557e-17 406.984 178)">pump</text><text fill="#595959" font-family="Times New Roman,Times New Roman_MSFontService,sans-serif" font-weight="400" font-size="12" transform="matrix(4.75236e-17 -0.775011 0.776119 4.74557e-17 417.331 193)">ventilator</text><text fill="#595959" font-family="Times New Roman,Times New Roman_MSFontService,sans-serif" font-weight="400" font-size="12" transform="matrix(4.75236e-17 -0.775011 0.776119 4.74557e-17 427.678 198)">push</text><text fill="#595959" font-family="Times New Roman,Times New Roman_MSFontService,sans-serif" font-weight="400" font-size="12" transform="matrix(4.75236e-17 -0.775011 0.776119 4.74557e-17 427.678 179)">_</text><text fill="#595959" font-family="Times New Roman,Times New Roman_MSFontService,sans-serif" font-weight="400" font-size="12" transform="matrix(4.75236e-17 -0.775011 0.776119 4.74557e-17 427.678 174)">latch</text><text fill="#595959" font-family="Times New Roman,Times New Roman_MSFontService,sans-serif" font-weight="400" font-size="12" transform="matrix(4.75236e-17 -0.775011 0.776119 4.74557e-17 438.025 183)">drawer</text><text fill="#595959" font-family="Times New Roman,Times New Roman_MSFontService,sans-serif" font-weight="400" font-size="12" transform="matrix(4.75236e-17 -0.775011 0.776119 4.74557e-17 448.373 208)">bedside</text><text fill="#595959" font-family="Times New Roman,Times New Roman_MSFontService,sans-serif" font-weight="400" font-size="12" transform="matrix(4.75236e-17 -0.775011 0.776119 4.74557e-17 448.373 181)">_</text><text fill="#595959" font-family="Times New Roman,Times New Roman_MSFontService,sans-serif" font-weight="400" font-size="12" transform="matrix(4.75236e-17 -0.775011 0.776119 4.74557e-17 448.373 176)">table</text><text fill="#595959" font-family="Times New Roman,Times New Roman_MSFontService,sans-serif" font-weight="400" font-size="12" transform="matrix(4.75236e-17 -0.775011 0.776119 4.74557e-17 458.72 203)">light</text><text fill="#595959" font-family="Times New Roman,Times New Roman_MSFontService,sans-serif" font-weight="400" font-size="12" transform="matrix(4.75236e-17 -0.775011 0.776119 4.74557e-17 458.72 187)">_</text><text fill="#595959" font-family="Times New Roman,Times New Roman_MSFontService,sans-serif" font-weight="400" font-size="12" transform="matrix(4.75236e-17 -0.775011 0.776119 4.74557e-17 458.72 182)">switch</text><text fill="#595959" font-family="Times New Roman,Times New Roman_MSFontService,sans-serif" font-weight="400" font-size="12" transform="matrix(4.75236e-17 -0.775011 0.776119 4.74557e-17 469.067 200)">exam</text><text fill="#595959" font-family="Times New Roman,Times New Roman_MSFontService,sans-serif" font-weight="400" font-size="12" transform="matrix(4.75236e-17 -0.775011 0.776119 4.74557e-17 469.067 181)">_</text><text fill="#595959" font-family="Times New Roman,Times New Roman_MSFontService,sans-serif" font-weight="400" font-size="12" transform="matrix(4.75236e-17 -0.775011 0.776119 4.74557e-17 469.067 177)">table</text><text fill="#595959" font-family="Times New Roman,Times New Roman_MSFontService,sans-serif" font-weight="400" font-size="12" transform="matrix(4.75236e-17 -0.775011 0.776119 4.74557e-17 479.414 231)">electrosurgical</text><text fill="#595959" font-family="Times New Roman,Times New Roman_MSFontService,sans-serif" font-weight="400" font-size="12" transform="matrix(4.75236e-17 -0.775011 0.776119 4.74557e-17 479.414 178)">_</text><text fill="#595959" font-family="Times New Roman,Times New Roman_MSFontService,sans-serif" font-weight="400" font-size="12" transform="matrix(4.75236e-17 -0.775011 0.776119 4.74557e-17 479.414 174)">unit</text><text fill="#595959" font-family="Times New Roman,Times New Roman_MSFontService,sans-serif" font-weight="400" font-size="12" transform="matrix(4.75236e-17 -0.775011 0.776119 4.74557e-17 489.762 176)">toilet</text><text fill="#595959" font-family="Times New Roman,Times New Roman_MSFontService,sans-serif" font-weight="400" font-size="12" transform="matrix(4.75236e-17 -0.775011 0.776119 4.74557e-17 500.109 181)">visitor</text><text fill="#595959" font-family="Times New Roman,Times New Roman_MSFontService,sans-serif" font-weight="400" font-size="12" transform="matrix(4.75236e-17 -0.775011 0.776119 4.74557e-17 510.456 251)">medical</text><text fill="#595959" font-family="Times New Roman,Times New Roman_MSFontService,sans-serif" font-weight="400" font-size="12" transform="matrix(4.75236e-17 -0.775011 0.776119 4.74557e-17 510.456 223)">_</text><text fill="#595959" font-family="Times New Roman,Times New Roman_MSFontService,sans-serif" font-weight="400" font-size="12" transform="matrix(4.75236e-17 -0.775011 0.776119 4.74557e-17 510.456 219)">waste</text><text fill="#595959" font-family="Times New Roman,Times New Roman_MSFontService,sans-serif" font-weight="400" font-size="12" transform="matrix(4.75236e-17 -0.775011 0.776119 4.74557e-17 510.456 197)">_</text><text fill="#595959" font-family="Times New Roman,Times New Roman_MSFontService,sans-serif" font-weight="400" font-size="12" transform="matrix(4.75236e-17 -0.775011 0.776119 4.74557e-17 510.456 192)">container</text><text fill="#595959" font-family="Times New Roman,Times New Roman_MSFontService,sans-serif" font-weight="400" font-size="12" transform="matrix(4.75236e-17 -0.775011 0.776119 4.74557e-17 520.803 205)">toilet</text><text fill="#595959" font-family="Times New Roman,Times New Roman_MSFontService,sans-serif" font-weight="400" font-size="12" transform="matrix(4.75236e-17 -0.775011 0.776119 4.74557e-17 520.803 186)">_</text><text fill="#595959" font-family="Times New Roman,Times New Roman_MSFontService,sans-serif" font-weight="400" font-size="12" transform="matrix(4.75236e-17 -0.775011 0.776119 4.74557e-17 520.803 181)">handle</text><text fill="#595959" font-family="Times New Roman,Times New Roman_MSFontService,sans-serif" font-weight="400" font-size="12" transform="matrix(4.75236e-17 -0.775011 0.776119 4.74557e-17 531.151 192)">incubator</text><text fill="#595959" font-family="Times New Roman,Times New Roman_MSFontService,sans-serif" font-weight="400" font-size="12" transform="matrix(4.75236e-17 -0.775011 0.776119 4.74557e-17 541.498 231)">surgical</text><text fill="#595959" font-family="Times New Roman,Times New Roman_MSFontService,sans-serif" font-weight="400" font-size="12" transform="matrix(4.75236e-17 -0.775011 0.776119 4.74557e-17 541.498 203)">_</text><text fill="#595959" font-family="Times New Roman,Times New Roman_MSFontService,sans-serif" font-weight="400" font-size="12" transform="matrix(4.75236e-17 -0.775011 0.776119 4.74557e-17 541.498 198)">instrument</text><text fill="#595959" font-family="Times New Roman,Times New Roman_MSFontService,sans-serif" font-weight="400" font-size="12" transform="matrix(4.75236e-17 -0.775011 0.776119 4.74557e-17 551.845 235)">panda</text><text fill="#595959" font-family="Times New Roman,Times New Roman_MSFontService,sans-serif" font-weight="400" font-size="12" transform="matrix(4.75236e-17 -0.775011 0.776119 4.74557e-17 551.845 212)">_</text><text fill="#595959" font-family="Times New Roman,Times New Roman_MSFontService,sans-serif" font-weight="400" font-size="12" transform="matrix(4.75236e-17 -0.775011 0.776119 4.74557e-17 551.845 208)">baby</text><text fill="#595959" font-family="Times New Roman,Times New Roman_MSFontService,sans-serif" font-weight="400" font-size="12" transform="matrix(4.75236e-17 -0.775011 0.776119 4.74557e-17 551.845 189)">_</text><text fill="#595959" font-family="Times New Roman,Times New Roman_MSFontService,sans-serif" font-weight="400" font-size="12" transform="matrix(4.75236e-17 -0.775011 0.776119 4.74557e-17 551.845 184)">warmer</text><text fill="#595959" font-family="Times New Roman,Times New Roman_MSFontService,sans-serif" font-weight="400" font-size="12" transform="matrix(4.75236e-17 -0.775011 0.776119 4.74557e-17 562.192 212)">elevator</text><text fill="#595959" font-family="Times New Roman,Times New Roman_MSFontService,sans-serif" font-weight="400" font-size="12" transform="matrix(4.75236e-17 -0.775011 0.776119 4.74557e-17 562.192 182)">_</text><text fill="#595959" font-family="Times New Roman,Times New Roman_MSFontService,sans-serif" font-weight="400" font-size="12" transform="matrix(4.75236e-17 -0.775011 0.776119 4.74557e-17 562.192 177)">panel</text><text fill="#595959" font-family="Times New Roman,Times New Roman_MSFontService,sans-serif" font-weight="400" font-size="12" transform="matrix(4.75236e-17 -0.775011 0.776119 4.74557e-17 572.539 246)">sequential</text><text fill="#595959" font-family="Times New Roman,Times New Roman_MSFontService,sans-serif" font-weight="400" font-size="12" transform="matrix(4.75236e-17 -0.775011 0.776119 4.74557e-17 572.539 209)">_</text><text fill="#595959" font-family="Times New Roman,Times New Roman_MSFontService,sans-serif" font-weight="400" font-size="12" transform="matrix(4.75236e-17 -0.775011 0.776119 4.74557e-17 572.539 205)">compression</text><text fill="#595959" font-family="Times New Roman,Times New Roman_MSFontService,sans-serif" font-weight="400" font-size="12" transform="matrix(4.75236e-17 -0.775011 0.776119 4.74557e-17 582.886 210)">xray</text><text fill="#595959" font-family="Times New Roman,Times New Roman_MSFontService,sans-serif" font-weight="400" font-size="12" transform="matrix(4.75236e-17 -0.775011 0.776119 4.74557e-17 582.886 194)">_</text><text fill="#595959" font-family="Times New Roman,Times New Roman_MSFontService,sans-serif" font-weight="400" font-size="12" transform="matrix(4.75236e-17 -0.775011 0.776119 4.74557e-17 582.886 189)">machine</text><text fill="#595959" font-family="Times New Roman,Times New Roman_MSFontService,sans-serif" font-weight="400" font-size="12" transform="matrix(4.75236e-17 -0.775011 0.776119 4.74557e-17 593.233 202)">wheel</text><text fill="#595959" font-family="Times New Roman,Times New Roman_MSFontService,sans-serif" font-weight="400" font-size="12" transform="matrix(4.75236e-17 -0.775011 0.776119 4.74557e-17 593.233 181)">_</text><text fill="#595959" font-family="Times New Roman,Times New Roman_MSFontService,sans-serif" font-weight="400" font-size="12" transform="matrix(4.75236e-17 -0.775011 0.776119 4.74557e-17 593.233 176)">chair</text><text fill="#595959" font-family="Times New Roman,Times New Roman_MSFontService,sans-serif" font-weight="400" font-size="12" transform="matrix(4.75236e-17 -0.775011 0.776119 4.74557e-17 603.58 191)">xray</text><text fill="#595959" font-family="Times New Roman,Times New Roman_MSFontService,sans-serif" font-weight="400" font-size="12" transform="matrix(4.75236e-17 -0.775011 0.776119 4.74557e-17 603.58 175)">_</text><text fill="#595959" font-family="Times New Roman,Times New Roman_MSFontService,sans-serif" font-weight="400" font-size="12" transform="matrix(4.75236e-17 -0.775011 0.776119 4.74557e-17 603.58 171)">bed</text><text fill="#595959" font-family="Times New Roman,Times New Roman_MSFontService,sans-serif" font-weight="400" font-size="12" transform="matrix(4.75236e-17 -0.775011 0.776119 4.74557e-17 613.928 211)">press</text><text fill="#595959" font-family="Times New Roman,Times New Roman_MSFontService,sans-serif" font-weight="400" font-size="12" transform="matrix(4.75236e-17 -0.775011 0.776119 4.74557e-17 613.928 191)">_</text><text fill="#595959" font-family="Times New Roman,Times New Roman_MSFontService,sans-serif" font-weight="400" font-size="12" transform="matrix(4.75236e-17 -0.775011 0.776119 4.74557e-17 613.928 186)">to</text><text fill="#595959" font-family="Times New Roman,Times New Roman_MSFontService,sans-serif" font-weight="400" font-size="12" transform="matrix(4.75236e-17 -0.775011 0.776119 4.74557e-17 613.928 178)">_</text><text fill="#595959" font-family="Times New Roman,Times New Roman_MSFontService,sans-serif" font-weight="400" font-size="12" transform="matrix(4.75236e-17 -0.775011 0.776119 4.74557e-17 613.928 174)">open</text><path d="M578.158 90.6763 706.81 90.6763 706.81 129.427 578.158 129.427Z" fill="#FFFFFF" fill-opacity="0.498039" transform="matrix(1.00143 0 0 1 -115.642 -76.7261)"/><path d="M599.858 97.6514 605.284 97.6514 605.284 103.076 599.858 103.076Z" fill="#4472C4" transform="matrix(1.00143 0 0 1 -115.642 -76.7261)"/><text fill="#595959" font-family="Times New Roman,Times New Roman_MSFontService,sans-serif" font-weight="400" font-size="14" transform="matrix(0.776119 0 0 0.775011 493.139 26)">Number of objects</text><path d="M599.858 117.027 605.284 117.027 605.284 122.452 599.858 122.452Z" fill="#ED7D31" transform="matrix(1.00143 0 0 1 -115.642 -76.7261)"/><text fill="#595959" font-family="Times New Roman,Times New Roman_MSFontService,sans-serif" font-weight="400" font-size="14" transform="matrix(0.776119 0 0 0.775011 493.139 46)">Number of images</text></g></svg>