<svg width="607" height="226" xmlns="http://www.w3.org/2000/svg" xmlns:xlink="http://www.w3.org/1999/xlink" xml:space="preserve" overflow="hidden"><defs><clipPath id="clip0"><rect x="0" y="0" width="607" height="226"/></clipPath><clipPath id="clip1"><rect x="293" y="-1" width="320" height="217"/></clipPath><clipPath id="clip2"><rect x="293" y="-1" width="320" height="217"/></clipPath><clipPath id="clip3"><rect x="346" y="9" width="258" height="160"/></clipPath><clipPath id="clip4"><rect x="293" y="-1" width="320" height="217"/></clipPath><clipPath id="clip5"><rect x="346" y="9" width="258" height="160"/></clipPath><clipPath id="clip6"><rect x="293" y="-1" width="320" height="217"/></clipPath><clipPath id="clip7"><rect x="346" y="9" width="258" height="160"/></clipPath><clipPath id="clip8"><rect x="293" y="-1" width="320" height="217"/></clipPath><clipPath id="clip9"><rect x="346" y="9" width="258" height="160"/></clipPath><clipPath id="clip10"><rect x="293" y="-1" width="320" height="217"/></clipPath><clipPath id="clip11"><rect x="293" y="-1" width="320" height="217"/></clipPath><clipPath id="clip12"><rect x="293" y="-1" width="320" height="217"/></clipPath><clipPath id="clip13"><rect x="293" y="-1" width="320" height="217"/></clipPath><clipPath id="clip14"><rect x="293" y="-1" width="320" height="217"/></clipPath><clipPath id="clip15"><rect x="293" y="-1" width="320" height="217"/></clipPath><clipPath id="clip16"><rect x="293" y="-1" width="320" height="217"/></clipPath><clipPath id="clip17"><rect x="293" y="-1" width="320" height="217"/></clipPath><clipPath id="clip18"><rect x="293" y="-1" width="320" height="217"/></clipPath><clipPath id="clip19"><rect x="293" y="-1" width="320" height="217"/></clipPath><clipPath id="clip20"><rect x="293" y="-1" width="320" height="217"/></clipPath><clipPath id="clip21"><rect x="293" y="-1" width="320" height="217"/></clipPath><clipPath id="clip22"><rect x="293" y="-1" width="320" height="217"/></clipPath><clipPath id="clip23"><rect x="293" y="-1" width="320" height="217"/></clipPath><clipPath id="clip24"><rect x="293" y="-1" width="320" height="217"/></clipPath><clipPath id="clip25"><rect x="293" y="-1" width="320" height="217"/></clipPath><clipPath id="clip26"><rect x="293" y="-1" width="320" height="217"/></clipPath><clipPath id="clip27"><rect x="293" y="-1" width="320" height="217"/></clipPath><clipPath id="clip28"><rect x="293" y="-1" width="320" height="217"/></clipPath><clipPath id="clip29"><rect x="293" y="-1" width="320" height="217"/></clipPath><clipPath id="clip30"><rect x="293" y="-1" width="320" height="217"/></clipPath><clipPath id="clip31"><rect x="293" y="-1" width="320" height="217"/></clipPath><clipPath id="clip32"><rect x="293" y="-1" width="320" height="217"/></clipPath><clipPath id="clip33"><rect x="293" y="-1" width="320" height="217"/></clipPath><clipPath id="clip34"><rect x="293" y="-1" width="320" height="217"/></clipPath><clipPath id="clip35"><rect x="293" y="-1" width="320" height="217"/></clipPath><clipPath id="clip36"><rect x="293" y="-1" width="320" height="217"/></clipPath><clipPath id="clip37"><rect x="293" y="-1" width="320" height="217"/></clipPath><clipPath id="clip38"><rect x="293" y="-1" width="320" height="217"/></clipPath><clipPath id="clip39"><rect x="293" y="-1" width="320" height="217"/></clipPath><clipPath id="clip40"><rect x="293" y="-1" width="320" height="217"/></clipPath><clipPath id="clip41"><rect x="293" y="-1" width="320" height="217"/></clipPath><clipPath id="clip42"><rect x="293" y="-1" width="320" height="217"/></clipPath><clipPath id="clip43"><rect x="293" y="-1" width="320" height="217"/></clipPath><clipPath id="clip44"><rect x="-11" y="-1" width="319" height="217"/></clipPath><clipPath id="clip45"><rect x="-11" y="-1" width="319" height="217"/></clipPath><clipPath id="clip46"><rect x="41" y="9" width="257" height="160"/></clipPath><clipPath id="clip47"><rect x="-11" y="-1" width="319" height="217"/></clipPath><clipPath id="clip48"><rect x="41" y="9" width="257" height="160"/></clipPath><clipPath id="clip49"><rect x="-11" y="-1" width="319" height="217"/></clipPath><clipPath id="clip50"><rect x="41" y="9" width="257" height="160"/></clipPath><clipPath id="clip51"><rect x="-11" y="-1" width="319" height="217"/></clipPath><clipPath id="clip52"><rect x="41" y="9" width="257" height="160"/></clipPath><clipPath id="clip53"><rect x="-11" y="-1" width="319" height="217"/></clipPath><clipPath id="clip54"><rect x="-11" y="-1" width="319" height="217"/></clipPath><clipPath id="clip55"><rect x="-11" y="-1" width="319" height="217"/></clipPath><clipPath id="clip56"><rect x="-11" y="-1" width="319" height="217"/></clipPath><clipPath id="clip57"><rect x="-11" y="-1" width="319" height="217"/></clipPath><clipPath id="clip58"><rect x="-11" y="-1" width="319" height="217"/></clipPath><clipPath id="clip59"><rect x="-11" y="-1" width="319" height="217"/></clipPath><clipPath id="clip60"><rect x="-11" y="-1" width="319" height="217"/></clipPath><clipPath id="clip61"><rect x="-11" y="-1" width="319" height="217"/></clipPath><clipPath id="clip62"><rect x="-11" y="-1" width="319" height="217"/></clipPath><clipPath id="clip63"><rect x="-11" y="-1" width="319" height="217"/></clipPath><clipPath id="clip64"><rect x="-11" y="-1" width="319" height="217"/></clipPath><clipPath id="clip65"><rect x="-11" y="-1" width="319" height="217"/></clipPath><clipPath id="clip66"><rect x="-11" y="-1" width="319" height="217"/></clipPath><clipPath id="clip67"><rect x="-11" y="-1" width="319" height="217"/></clipPath><clipPath id="clip68"><rect x="-11" y="-1" width="319" height="217"/></clipPath><clipPath id="clip69"><rect x="-11" y="-1" width="319" height="217"/></clipPath><clipPath id="clip70"><rect x="-11" y="-1" width="319" height="217"/></clipPath><clipPath id="clip71"><rect x="-11" y="-1" width="319" height="217"/></clipPath><clipPath id="clip72"><rect x="-11" y="-1" width="319" height="217"/></clipPath><clipPath id="clip73"><rect x="-11" y="-1" width="319" height="217"/></clipPath><clipPath id="clip74"><rect x="-11" y="-1" width="319" height="217"/></clipPath><clipPath id="clip75"><rect x="-11" y="-1" width="319" height="217"/></clipPath><clipPath id="clip76"><rect x="-11" y="-1" width="319" height="217"/></clipPath><clipPath id="clip77"><rect x="-11" y="-1" width="319" height="217"/></clipPath><clipPath id="clip78"><rect x="-11" y="-1" width="319" height="217"/></clipPath><clipPath id="clip79"><rect x="-11" y="-1" width="319" height="217"/></clipPath><clipPath id="clip80"><rect x="-11" y="-1" width="319" height="217"/></clipPath><clipPath id="clip81"><rect x="-11" y="-1" width="319" height="217"/></clipPath><clipPath id="clip82"><rect x="-11" y="-1" width="319" height="217"/></clipPath><clipPath id="clip83"><rect x="-11" y="-1" width="319" height="217"/></clipPath><clipPath id="clip84"><rect x="-11" y="-1" width="319" height="217"/></clipPath></defs><g clip-path="url(#clip0)"><path d="M530.833 100.454 848.938 100.454 848.938 316.136 530.833 316.136Z" fill="#FFFFFF" transform="matrix(1 0 0 1.00353 -236.022 -100.809)"/><g clip-path="url(#clip1)"><path d="M582.537 245.719 838.597 245.719M582.537 223.068 838.597 223.068M582.537 200.416 838.597 200.416M582.537 177.765 838.597 177.765M582.537 156.098 838.597 156.098M582.537 133.447 838.597 133.447M582.537 110.795 838.597 110.795" stroke="#D9D9D9" stroke-width="0.738635" stroke-linejoin="round" stroke-miterlimit="10" stroke-dasharray="2.95454 2.21591" fill="none" transform="matrix(1 0 0 1.00353 -236.022 -100.809)"/></g><g clip-path="url(#clip2)"><path d="M582.537 267.386 838.597 267.386" stroke="#D9D9D9" stroke-width="0.738635" stroke-linejoin="round" stroke-miterlimit="10" fill="none" fill-rule="evenodd" transform="matrix(1 0 0 1.00353 -236.022 -100.809)"/></g><g clip-path="url(#clip3)"><path d="M588.938 267.878 600.757 221.591 613.56 198.939 625.378 221.591 637.196 241.288 649.999 252.121 661.817 259.015 674.62 262.954 686.438 264.924 698.256 265.909 711.06 266.894 722.878 267.878 734.696 267.878 747.499 267.878 759.317 267.878 771.135 267.878 783.938 267.878 795.756 267.878 807.575 267.878 820.378 267.878 832.196 267.878" stroke="#4472C4" stroke-width="2.21591" stroke-linecap="round" stroke-linejoin="round" stroke-miterlimit="10" fill="none" transform="matrix(1 0 0 1.00353 -236.022 -100.809)"/></g><g clip-path="url(#clip4)"><path d="M590.3 265.998C590.3 267.087 589.418 267.968 588.33 267.968 587.242 267.968 586.36 267.087 586.36 265.998 586.36 264.91 587.242 264.029 588.33 264.029 589.418 264.029 590.3 264.91 590.3 265.998Z" stroke="#4472C4" stroke-width="0.738635" stroke-linejoin="round" stroke-miterlimit="10" fill="#4472C4" transform="matrix(1 0 0 1.00353 -236.022 -100.809)"/><path d="M602.118 220.695C602.118 221.784 601.236 222.665 600.148 222.665 599.06 222.665 598.178 221.784 598.178 220.695 598.178 219.607 599.06 218.726 600.148 218.726 601.236 218.726 602.118 219.607 602.118 220.695Z" stroke="#4472C4" stroke-width="0.738635" stroke-linejoin="round" stroke-miterlimit="10" fill="#4472C4" transform="matrix(1 0 0 1.00353 -236.022 -100.809)"/><path d="M613.936 198.044C613.936 199.132 613.054 200.014 611.966 200.014 610.878 200.014 609.997 199.132 609.997 198.044 609.997 196.956 610.878 196.074 611.966 196.074 613.054 196.074 613.936 196.956 613.936 198.044Z" stroke="#4472C4" stroke-width="0.738635" stroke-linejoin="round" stroke-miterlimit="10" fill="#4472C4" transform="matrix(1 0 0 1.00353 -236.022 -100.809)"/><path d="M626.739 220.695C626.739 221.784 625.857 222.665 624.769 222.665 623.681 222.665 622.799 221.784 622.799 220.695 622.799 219.607 623.681 218.726 624.769 218.726 625.857 218.726 626.739 219.607 626.739 220.695Z" stroke="#4472C4" stroke-width="0.738635" stroke-linejoin="round" stroke-miterlimit="10" fill="#4472C4" transform="matrix(1 0 0 1.00353 -236.022 -100.809)"/><path d="M638.557 239.407C638.557 240.496 637.676 241.377 636.587 241.377 635.499 241.377 634.618 240.496 634.618 239.407 634.618 238.319 635.499 237.438 636.587 237.438 637.676 237.438 638.557 238.319 638.557 239.407Z" stroke="#4472C4" stroke-width="0.738635" stroke-linejoin="round" stroke-miterlimit="10" fill="#4472C4" transform="matrix(1 0 0 1.00353 -236.022 -100.809)"/><path d="M650.375 250.241C650.375 251.329 649.494 252.21 648.406 252.21 647.317 252.21 646.436 251.329 646.436 250.241 646.436 249.152 647.317 248.271 648.406 248.271 649.494 248.271 650.375 249.152 650.375 250.241Z" stroke="#4472C4" stroke-width="0.738635" stroke-linejoin="round" stroke-miterlimit="10" fill="#4472C4" transform="matrix(1 0 0 1.00353 -236.022 -100.809)"/><path d="M663.178 257.135C663.178 258.223 662.297 259.104 661.209 259.104 660.12 259.104 659.239 258.223 659.239 257.135 659.239 256.046 660.12 255.165 661.209 255.165 662.297 255.165 663.178 256.046 663.178 257.135Z" stroke="#4472C4" stroke-width="0.738635" stroke-linejoin="round" stroke-miterlimit="10" fill="#4472C4" transform="matrix(1 0 0 1.00353 -236.022 -100.809)"/><path d="M674.996 261.074C674.996 262.162 674.115 263.044 673.027 263.044 671.938 263.044 671.057 262.162 671.057 261.074 671.057 259.986 671.938 259.104 673.027 259.104 674.115 259.104 674.996 259.986 674.996 261.074Z" stroke="#4472C4" stroke-width="0.738635" stroke-linejoin="round" stroke-miterlimit="10" fill="#4472C4" transform="matrix(1 0 0 1.00353 -236.022 -100.809)"/><path d="M686.815 264.029C686.815 265.117 685.933 265.998 684.845 265.998 683.757 265.998 682.875 265.117 682.875 264.029 682.875 262.94 683.757 262.059 684.845 262.059 685.933 262.059 686.815 262.94 686.815 264.029Z" stroke="#4472C4" stroke-width="0.738635" stroke-linejoin="round" stroke-miterlimit="10" fill="#4472C4" transform="matrix(1 0 0 1.00353 -236.022 -100.809)"/><path d="M699.618 265.013C699.618 266.102 698.736 266.983 697.648 266.983 696.56 266.983 695.678 266.102 695.678 265.013 695.678 263.925 696.56 263.044 697.648 263.044 698.736 263.044 699.618 263.925 699.618 265.013Z" stroke="#4472C4" stroke-width="0.738635" stroke-linejoin="round" stroke-miterlimit="10" fill="#4472C4" transform="matrix(1 0 0 1.00353 -236.022 -100.809)"/><path d="M711.436 265.998C711.436 267.087 710.554 267.968 709.466 267.968 708.378 267.968 707.496 267.087 707.496 265.998 707.496 264.91 708.378 264.029 709.466 264.029 710.554 264.029 711.436 264.91 711.436 265.998Z" stroke="#4472C4" stroke-width="0.738635" stroke-linejoin="round" stroke-miterlimit="10" fill="#4472C4" transform="matrix(1 0 0 1.00353 -236.022 -100.809)"/><path d="M723.254 265.998C723.254 267.087 722.372 267.968 721.284 267.968 720.196 267.968 719.315 267.087 719.315 265.998 719.315 264.91 720.196 264.029 721.284 264.029 722.372 264.029 723.254 264.91 723.254 265.998Z" stroke="#4472C4" stroke-width="0.738635" stroke-linejoin="round" stroke-miterlimit="10" fill="#4472C4" transform="matrix(1 0 0 1.00353 -236.022 -100.809)"/><path d="M736.057 265.998C736.057 267.087 735.175 267.968 734.087 267.968 732.999 267.968 732.117 267.087 732.117 265.998 732.117 264.91 732.999 264.029 734.087 264.029 735.175 264.029 736.057 264.91 736.057 265.998Z" stroke="#4472C4" stroke-width="0.738635" stroke-linejoin="round" stroke-miterlimit="10" fill="#4472C4" transform="matrix(1 0 0 1.00353 -236.022 -100.809)"/><path d="M747.875 265.998C747.875 267.087 746.994 267.968 745.905 267.968 744.817 267.968 743.936 267.087 743.936 265.998 743.936 264.91 744.817 264.029 745.905 264.029 746.994 264.029 747.875 264.91 747.875 265.998Z" stroke="#4472C4" stroke-width="0.738635" stroke-linejoin="round" stroke-miterlimit="10" fill="#4472C4" transform="matrix(1 0 0 1.00353 -236.022 -100.809)"/><path d="M759.693 265.998C759.693 267.087 758.812 267.968 757.724 267.968 756.635 267.968 755.754 267.087 755.754 265.998 755.754 264.91 756.635 264.029 757.724 264.029 758.812 264.029 759.693 264.91 759.693 265.998Z" stroke="#4472C4" stroke-width="0.738635" stroke-linejoin="round" stroke-miterlimit="10" fill="#4472C4" transform="matrix(1 0 0 1.00353 -236.022 -100.809)"/><path d="M772.496 265.998C772.496 267.087 771.615 267.968 770.527 267.968 769.438 267.968 768.557 267.087 768.557 265.998 768.557 264.91 769.438 264.029 770.527 264.029 771.615 264.029 772.496 264.91 772.496 265.998Z" stroke="#4472C4" stroke-width="0.738635" stroke-linejoin="round" stroke-miterlimit="10" fill="#4472C4" transform="matrix(1 0 0 1.00353 -236.022 -100.809)"/><path d="M784.314 265.998C784.314 267.087 783.433 267.968 782.345 267.968 781.256 267.968 780.375 267.087 780.375 265.998 780.375 264.91 781.256 264.029 782.345 264.029 783.433 264.029 784.314 264.91 784.314 265.998Z" stroke="#4472C4" stroke-width="0.738635" stroke-linejoin="round" stroke-miterlimit="10" fill="#4472C4" transform="matrix(1 0 0 1.00353 -236.022 -100.809)"/><path d="M797.117 265.998C797.117 267.087 796.236 267.968 795.148 267.968 794.059 267.968 793.178 267.087 793.178 265.998 793.178 264.91 794.059 264.029 795.148 264.029 796.236 264.029 797.117 264.91 797.117 265.998Z" stroke="#4472C4" stroke-width="0.738635" stroke-linejoin="round" stroke-miterlimit="10" fill="#4472C4" transform="matrix(1 0 0 1.00353 -236.022 -100.809)"/><path d="M808.936 265.998C808.936 267.087 808.054 267.968 806.966 267.968 805.878 267.968 804.996 267.087 804.996 265.998 804.996 264.91 805.878 264.029 806.966 264.029 808.054 264.029 808.936 264.91 808.936 265.998Z" stroke="#4472C4" stroke-width="0.738635" stroke-linejoin="round" stroke-miterlimit="10" fill="#4472C4" transform="matrix(1 0 0 1.00353 -236.022 -100.809)"/><path d="M820.754 265.998C820.754 267.087 819.872 267.968 818.784 267.968 817.696 267.968 816.814 267.087 816.814 265.998 816.814 264.91 817.696 264.029 818.784 264.029 819.872 264.029 820.754 264.91 820.754 265.998Z" stroke="#4472C4" stroke-width="0.738635" stroke-linejoin="round" stroke-miterlimit="10" fill="#4472C4" transform="matrix(1 0 0 1.00353 -236.022 -100.809)"/><path d="M833.557 265.998C833.557 267.087 832.675 267.968 831.587 267.968 830.499 267.968 829.617 267.087 829.617 265.998 829.617 264.91 830.499 264.029 831.587 264.029 832.675 264.029 833.557 264.91 833.557 265.998Z" stroke="#4472C4" stroke-width="0.738635" stroke-linejoin="round" stroke-miterlimit="10" fill="#4472C4" transform="matrix(1 0 0 1.00353 -236.022 -100.809)"/></g><g clip-path="url(#clip5)"><path d="M588.938 267.878 600.757 260.984 613.56 254.091 625.378 246.212 637.196 245.227 649.999 242.272 661.817 241.288 674.62 245.227 686.438 248.181 698.256 252.121 711.06 254.091 722.878 258.03 734.696 258.03 747.499 262.954 759.317 263.939 771.135 264.924 783.938 266.894 795.756 266.894 807.575 266.894 820.378 267.878 832.196 267.878" stroke="#ED7D31" stroke-width="2.21591" stroke-linecap="round" stroke-linejoin="round" stroke-miterlimit="10" fill="none" transform="matrix(1 0 0 1.00353 -236.022 -100.809)"/></g><g clip-path="url(#clip6)"><path d="M592.762 270.43 585.868 263.536M589.315 263.536 589.315 270.43M585.868 270.43 592.762 263.536" stroke="#ED7D31" stroke-width="0.738635" stroke-linejoin="round" stroke-miterlimit="10" fill="none" transform="matrix(1 0 0 1.00353 -236.022 -100.809)"/><path d="M604.58 264.521 597.686 257.627M601.133 257.627 601.133 264.521M597.686 264.521 604.58 257.627" stroke="#ED7D31" stroke-width="0.738635" stroke-linejoin="round" stroke-miterlimit="10" fill="none" transform="matrix(1 0 0 1.00353 -236.022 -100.809)"/><path d="M616.398 256.642 609.504 249.748M612.951 249.748 612.951 256.642M609.504 256.642 616.398 249.748" stroke="#ED7D31" stroke-width="0.738635" stroke-linejoin="round" stroke-miterlimit="10" fill="none" transform="matrix(1 0 0 1.00353 -236.022 -100.809)"/><path d="M629.201 248.763 622.307 241.87M625.754 241.87 625.754 248.763M622.307 248.763 629.201 241.87" stroke="#ED7D31" stroke-width="0.738635" stroke-linejoin="round" stroke-miterlimit="10" fill="none" transform="matrix(1 0 0 1.00353 -236.022 -100.809)"/><path d="M641.019 248.763 634.125 241.87M637.572 241.87 637.572 248.763M634.125 248.763 641.019 241.87" stroke="#ED7D31" stroke-width="0.738635" stroke-linejoin="round" stroke-miterlimit="10" fill="none" transform="matrix(1 0 0 1.00353 -236.022 -100.809)"/><path d="M652.837 244.824 645.943 237.93M649.39 237.93 649.39 244.824M645.943 244.824 652.837 237.93" stroke="#ED7D31" stroke-width="0.738635" stroke-linejoin="round" stroke-miterlimit="10" fill="none" transform="matrix(1 0 0 1.00353 -236.022 -100.809)"/><path d="M665.64 244.824 658.746 237.93M662.193 237.93 662.193 244.824M658.746 244.824 665.64 237.93" stroke="#ED7D31" stroke-width="0.738635" stroke-linejoin="round" stroke-miterlimit="10" fill="none" transform="matrix(1 0 0 1.00353 -236.022 -100.809)"/><path d="M677.458 248.763 670.565 241.87M674.012 241.87 674.012 248.763M670.565 248.763 677.458 241.87" stroke="#ED7D31" stroke-width="0.738635" stroke-linejoin="round" stroke-miterlimit="10" fill="none" transform="matrix(1 0 0 1.00353 -236.022 -100.809)"/><path d="M689.277 250.733 682.383 243.839M685.83 243.839 685.83 250.733M682.383 250.733 689.277 243.839" stroke="#ED7D31" stroke-width="0.738635" stroke-linejoin="round" stroke-miterlimit="10" fill="none" transform="matrix(1 0 0 1.00353 -236.022 -100.809)"/><path d="M702.08 254.673 695.186 247.779M698.633 247.779 698.633 254.673M695.186 254.673 702.08 247.779" stroke="#ED7D31" stroke-width="0.738635" stroke-linejoin="round" stroke-miterlimit="10" fill="none" transform="matrix(1 0 0 1.00353 -236.022 -100.809)"/><path d="M713.898 256.642 707.004 249.748M710.451 249.748 710.451 256.642M707.004 256.642 713.898 249.748" stroke="#ED7D31" stroke-width="0.738635" stroke-linejoin="round" stroke-miterlimit="10" fill="none" transform="matrix(1 0 0 1.00353 -236.022 -100.809)"/><path d="M725.716 260.582 718.822 253.688M722.269 253.688 722.269 260.582M718.822 260.582 725.716 253.688" stroke="#ED7D31" stroke-width="0.738635" stroke-linejoin="round" stroke-miterlimit="10" fill="none" transform="matrix(1 0 0 1.00353 -236.022 -100.809)"/><path d="M738.519 260.582 731.625 253.688M735.072 253.688 735.072 260.582M731.625 260.582 738.519 253.688" stroke="#ED7D31" stroke-width="0.738635" stroke-linejoin="round" stroke-miterlimit="10" fill="none" transform="matrix(1 0 0 1.00353 -236.022 -100.809)"/><path d="M750.337 265.506 743.443 258.612M746.89 258.612 746.89 265.506M743.443 265.506 750.337 258.612" stroke="#ED7D31" stroke-width="0.738635" stroke-linejoin="round" stroke-miterlimit="10" fill="none" transform="matrix(1 0 0 1.00353 -236.022 -100.809)"/><path d="M762.155 267.476 755.261 260.582M758.708 260.582 758.708 267.476M755.261 267.476 762.155 260.582" stroke="#ED7D31" stroke-width="0.738635" stroke-linejoin="round" stroke-miterlimit="10" fill="none" transform="matrix(1 0 0 1.00353 -236.022 -100.809)"/><path d="M774.958 268.46 768.064 261.566M771.511 261.566 771.511 268.46M768.064 268.46 774.958 261.566" stroke="#ED7D31" stroke-width="0.738635" stroke-linejoin="round" stroke-miterlimit="10" fill="none" transform="matrix(1 0 0 1.00353 -236.022 -100.809)"/><path d="M786.776 270.43 779.883 263.536M783.33 263.536 783.33 270.43M779.883 270.43 786.776 263.536" stroke="#ED7D31" stroke-width="0.738635" stroke-linejoin="round" stroke-miterlimit="10" fill="none" transform="matrix(1 0 0 1.00353 -236.022 -100.809)"/><path d="M799.58 270.43 792.686 263.536M796.133 263.536 796.133 270.43M792.686 270.43 799.58 263.536" stroke="#ED7D31" stroke-width="0.738635" stroke-linejoin="round" stroke-miterlimit="10" fill="none" transform="matrix(1 0 0 1.00353 -236.022 -100.809)"/><path d="M811.398 270.43 804.504 263.536M807.951 263.536 807.951 270.43M804.504 270.43 811.398 263.536" stroke="#ED7D31" stroke-width="0.738635" stroke-linejoin="round" stroke-miterlimit="10" fill="none" transform="matrix(1 0 0 1.00353 -236.022 -100.809)"/><path d="M823.216 270.43 816.322 263.536M819.769 263.536 819.769 270.43M816.322 270.43 823.216 263.536" stroke="#ED7D31" stroke-width="0.738635" stroke-linejoin="round" stroke-miterlimit="10" fill="none" transform="matrix(1 0 0 1.00353 -236.022 -100.809)"/><path d="M836.019 270.43 829.125 263.536M832.572 263.536 832.572 270.43M829.125 270.43 836.019 263.536" stroke="#ED7D31" stroke-width="0.738635" stroke-linejoin="round" stroke-miterlimit="10" fill="none" transform="matrix(1 0 0 1.00353 -236.022 -100.809)"/></g><g clip-path="url(#clip7)"><path d="M588.938 267.878 600.757 185.151 613.56 216.666 625.378 227.5 637.196 244.242 649.999 256.06 661.817 261.969 674.62 264.924 686.438 265.909 698.256 266.894 711.06 266.894 722.878 266.894 734.696 266.894 747.499 267.878 759.317 267.878 771.135 267.878 783.938 267.878 795.756 267.878 807.575 267.878 820.378 267.878 832.196 267.878" stroke="#A5A5A5" stroke-width="2.21591" stroke-linecap="round" stroke-linejoin="round" stroke-miterlimit="10" fill="none" transform="matrix(1 0 0 1.00353 -236.022 -100.809)"/></g><g clip-path="url(#clip8)"><path d="M589.315 264.029 592.269 269.938 586.36 269.938Z" stroke="#A5A5A5" stroke-width="0.738635" stroke-linejoin="round" stroke-miterlimit="10" fill="#A5A5A5" transform="matrix(1 0 0 1.00353 -236.022 -100.809)"/><path d="M601.133 182.286 604.087 188.195 598.178 188.195Z" stroke="#A5A5A5" stroke-width="0.738635" stroke-linejoin="round" stroke-miterlimit="10" fill="#A5A5A5" transform="matrix(1 0 0 1.00353 -236.022 -100.809)"/><path d="M612.951 213.801 615.906 219.71 609.997 219.71Z" stroke="#A5A5A5" stroke-width="0.738635" stroke-linejoin="round" stroke-miterlimit="10" fill="#A5A5A5" transform="matrix(1 0 0 1.00353 -236.022 -100.809)"/><path d="M625.754 224.635 628.709 230.544 622.799 230.544Z" stroke="#A5A5A5" stroke-width="0.738635" stroke-linejoin="round" stroke-miterlimit="10" fill="#A5A5A5" transform="matrix(1 0 0 1.00353 -236.022 -100.809)"/><path d="M637.572 240.392 640.527 246.301 634.618 246.301Z" stroke="#A5A5A5" stroke-width="0.738635" stroke-linejoin="round" stroke-miterlimit="10" fill="#A5A5A5" transform="matrix(1 0 0 1.00353 -236.022 -100.809)"/><path d="M649.39 252.21 652.345 258.12 646.436 258.12Z" stroke="#A5A5A5" stroke-width="0.738635" stroke-linejoin="round" stroke-miterlimit="10" fill="#A5A5A5" transform="matrix(1 0 0 1.00353 -236.022 -100.809)"/><path d="M662.193 259.104 665.148 265.013 659.239 265.013Z" stroke="#A5A5A5" stroke-width="0.738635" stroke-linejoin="round" stroke-miterlimit="10" fill="#A5A5A5" transform="matrix(1 0 0 1.00353 -236.022 -100.809)"/><path d="M674.012 262.059 676.966 267.968 671.057 267.968Z" stroke="#A5A5A5" stroke-width="0.738635" stroke-linejoin="round" stroke-miterlimit="10" fill="#A5A5A5" transform="matrix(1 0 0 1.00353 -236.022 -100.809)"/><path d="M685.83 263.044 688.784 268.953 682.875 268.953Z" stroke="#A5A5A5" stroke-width="0.738635" stroke-linejoin="round" stroke-miterlimit="10" fill="#A5A5A5" transform="matrix(1 0 0 1.00353 -236.022 -100.809)"/><path d="M698.633 263.044 701.587 268.953 695.678 268.953Z" stroke="#A5A5A5" stroke-width="0.738635" stroke-linejoin="round" stroke-miterlimit="10" fill="#A5A5A5" transform="matrix(1 0 0 1.00353 -236.022 -100.809)"/><path d="M710.451 263.044 713.405 268.953 707.496 268.953Z" stroke="#A5A5A5" stroke-width="0.738635" stroke-linejoin="round" stroke-miterlimit="10" fill="#A5A5A5" transform="matrix(1 0 0 1.00353 -236.022 -100.809)"/><path d="M722.269 264.029 725.224 269.938 719.315 269.938Z" stroke="#A5A5A5" stroke-width="0.738635" stroke-linejoin="round" stroke-miterlimit="10" fill="#A5A5A5" transform="matrix(1 0 0 1.00353 -236.022 -100.809)"/><path d="M735.072 264.029 738.027 269.938 732.117 269.938Z" stroke="#A5A5A5" stroke-width="0.738635" stroke-linejoin="round" stroke-miterlimit="10" fill="#A5A5A5" transform="matrix(1 0 0 1.00353 -236.022 -100.809)"/><path d="M746.89 264.029 749.845 269.938 743.936 269.938Z" stroke="#A5A5A5" stroke-width="0.738635" stroke-linejoin="round" stroke-miterlimit="10" fill="#A5A5A5" transform="matrix(1 0 0 1.00353 -236.022 -100.809)"/><path d="M758.708 264.029 761.663 269.938 755.754 269.938Z" stroke="#A5A5A5" stroke-width="0.738635" stroke-linejoin="round" stroke-miterlimit="10" fill="#A5A5A5" transform="matrix(1 0 0 1.00353 -236.022 -100.809)"/><path d="M771.511 264.029 774.466 269.938 768.557 269.938Z" stroke="#A5A5A5" stroke-width="0.738635" stroke-linejoin="round" stroke-miterlimit="10" fill="#A5A5A5" transform="matrix(1 0 0 1.00353 -236.022 -100.809)"/><path d="M783.33 264.029 786.284 269.938 780.375 269.938Z" stroke="#A5A5A5" stroke-width="0.738635" stroke-linejoin="round" stroke-miterlimit="10" fill="#A5A5A5" transform="matrix(1 0 0 1.00353 -236.022 -100.809)"/><path d="M796.133 264.029 799.087 269.938 793.178 269.938Z" stroke="#A5A5A5" stroke-width="0.738635" stroke-linejoin="round" stroke-miterlimit="10" fill="#A5A5A5" transform="matrix(1 0 0 1.00353 -236.022 -100.809)"/><path d="M807.951 264.029 810.905 269.938 804.996 269.938Z" stroke="#A5A5A5" stroke-width="0.738635" stroke-linejoin="round" stroke-miterlimit="10" fill="#A5A5A5" transform="matrix(1 0 0 1.00353 -236.022 -100.809)"/><path d="M819.769 264.029 822.723 269.938 816.814 269.938Z" stroke="#A5A5A5" stroke-width="0.738635" stroke-linejoin="round" stroke-miterlimit="10" fill="#A5A5A5" transform="matrix(1 0 0 1.00353 -236.022 -100.809)"/><path d="M832.572 264.029 835.526 269.938 829.617 269.938Z" stroke="#A5A5A5" stroke-width="0.738635" stroke-linejoin="round" stroke-miterlimit="10" fill="#A5A5A5" transform="matrix(1 0 0 1.00353 -236.022 -100.809)"/></g><g clip-path="url(#clip9)"><path d="M588.938 267.878 600.757 130.985 613.56 204.848 625.378 248.181 637.196 263.939 649.999 266.894 661.817 267.878 674.62 267.878 686.438 267.878 698.256 267.878 711.06 267.878 722.878 267.878 734.696 267.878 747.499 267.878 759.317 267.878 771.135 267.878 783.938 267.878 795.756 267.878 807.575 267.878 820.378 267.878 832.196 267.878" stroke="#FFC000" stroke-width="2.21591" stroke-linecap="round" stroke-linejoin="round" stroke-miterlimit="10" fill="none" transform="matrix(1 0 0 1.00353 -236.022 -100.809)"/></g><g clip-path="url(#clip10)"><path d="M586.36 264.029 590.3 264.029 590.3 267.968 586.36 267.968Z" stroke="#FFC000" stroke-width="0.738635" stroke-linejoin="round" stroke-miterlimit="10" fill="#FFC000" transform="matrix(1 0 0 1.00353 -236.022 -100.809)"/><path d="M598.178 128.12 602.118 128.12 602.118 132.059 598.178 132.059Z" stroke="#FFC000" stroke-width="0.738635" stroke-linejoin="round" stroke-miterlimit="10" fill="#FFC000" transform="matrix(1 0 0 1.00353 -236.022 -100.809)"/><path d="M609.997 201.983 613.936 201.983 613.936 205.923 609.997 205.923Z" stroke="#FFC000" stroke-width="0.738635" stroke-linejoin="round" stroke-miterlimit="10" fill="#FFC000" transform="matrix(1 0 0 1.00353 -236.022 -100.809)"/><path d="M622.799 245.317 626.739 245.317 626.739 249.256 622.799 249.256Z" stroke="#FFC000" stroke-width="0.738635" stroke-linejoin="round" stroke-miterlimit="10" fill="#FFC000" transform="matrix(1 0 0 1.00353 -236.022 -100.809)"/><path d="M634.618 260.089 638.557 260.089 638.557 264.029 634.618 264.029Z" stroke="#FFC000" stroke-width="0.738635" stroke-linejoin="round" stroke-miterlimit="10" fill="#FFC000" transform="matrix(1 0 0 1.00353 -236.022 -100.809)"/><path d="M646.436 264.029 650.375 264.029 650.375 267.968 646.436 267.968Z" stroke="#FFC000" stroke-width="0.738635" stroke-linejoin="round" stroke-miterlimit="10" fill="#FFC000" transform="matrix(1 0 0 1.00353 -236.022 -100.809)"/><path d="M659.239 264.029 663.178 264.029 663.178 267.968 659.239 267.968Z" stroke="#FFC000" stroke-width="0.738635" stroke-linejoin="round" stroke-miterlimit="10" fill="#FFC000" transform="matrix(1 0 0 1.00353 -236.022 -100.809)"/><path d="M671.057 264.029 674.996 264.029 674.996 267.968 671.057 267.968Z" stroke="#FFC000" stroke-width="0.738635" stroke-linejoin="round" stroke-miterlimit="10" fill="#FFC000" transform="matrix(1 0 0 1.00353 -236.022 -100.809)"/><path d="M682.875 264.029 686.815 264.029 686.815 267.968 682.875 267.968Z" stroke="#FFC000" stroke-width="0.738635" stroke-linejoin="round" stroke-miterlimit="10" fill="#FFC000" transform="matrix(1 0 0 1.00353 -236.022 -100.809)"/><path d="M695.678 264.029 699.618 264.029 699.618 267.968 695.678 267.968Z" stroke="#FFC000" stroke-width="0.738635" stroke-linejoin="round" stroke-miterlimit="10" fill="#FFC000" transform="matrix(1 0 0 1.00353 -236.022 -100.809)"/><path d="M707.496 264.029 711.436 264.029 711.436 267.968 707.496 267.968Z" stroke="#FFC000" stroke-width="0.738635" stroke-linejoin="round" stroke-miterlimit="10" fill="#FFC000" transform="matrix(1 0 0 1.00353 -236.022 -100.809)"/><path d="M719.315 264.029 723.254 264.029 723.254 267.968 719.315 267.968Z" stroke="#FFC000" stroke-width="0.738635" stroke-linejoin="round" stroke-miterlimit="10" fill="#FFC000" transform="matrix(1 0 0 1.00353 -236.022 -100.809)"/><path d="M732.117 264.029 736.057 264.029 736.057 267.968 732.117 267.968Z" stroke="#FFC000" stroke-width="0.738635" stroke-linejoin="round" stroke-miterlimit="10" fill="#FFC000" transform="matrix(1 0 0 1.00353 -236.022 -100.809)"/><path d="M743.936 264.029 747.875 264.029 747.875 267.968 743.936 267.968Z" stroke="#FFC000" stroke-width="0.738635" stroke-linejoin="round" stroke-miterlimit="10" fill="#FFC000" transform="matrix(1 0 0 1.00353 -236.022 -100.809)"/><path d="M755.754 264.029 759.693 264.029 759.693 267.968 755.754 267.968Z" stroke="#FFC000" stroke-width="0.738635" stroke-linejoin="round" stroke-miterlimit="10" fill="#FFC000" transform="matrix(1 0 0 1.00353 -236.022 -100.809)"/><path d="M768.557 264.029 772.496 264.029 772.496 267.968 768.557 267.968Z" stroke="#FFC000" stroke-width="0.738635" stroke-linejoin="round" stroke-miterlimit="10" fill="#FFC000" transform="matrix(1 0 0 1.00353 -236.022 -100.809)"/><path d="M780.375 264.029 784.314 264.029 784.314 267.968 780.375 267.968Z" stroke="#FFC000" stroke-width="0.738635" stroke-linejoin="round" stroke-miterlimit="10" fill="#FFC000" transform="matrix(1 0 0 1.00353 -236.022 -100.809)"/><path d="M793.178 264.029 797.117 264.029 797.117 267.968 793.178 267.968Z" stroke="#FFC000" stroke-width="0.738635" stroke-linejoin="round" stroke-miterlimit="10" fill="#FFC000" transform="matrix(1 0 0 1.00353 -236.022 -100.809)"/><path d="M804.996 264.029 808.936 264.029 808.936 267.968 804.996 267.968Z" stroke="#FFC000" stroke-width="0.738635" stroke-linejoin="round" stroke-miterlimit="10" fill="#FFC000" transform="matrix(1 0 0 1.00353 -236.022 -100.809)"/><path d="M816.814 264.029 820.754 264.029 820.754 267.968 816.814 267.968Z" stroke="#FFC000" stroke-width="0.738635" stroke-linejoin="round" stroke-miterlimit="10" fill="#FFC000" transform="matrix(1 0 0 1.00353 -236.022 -100.809)"/><path d="M829.617 264.029 833.557 264.029 833.557 267.968 829.617 267.968Z" stroke="#FFC000" stroke-width="0.738635" stroke-linejoin="round" stroke-miterlimit="10" fill="#FFC000" transform="matrix(1 0 0 1.00353 -236.022 -100.809)"/></g><g clip-path="url(#clip11)"><text fill="#595959" font-family="Times New Roman,Times New Roman_MSFontService,sans-serif" font-weight="400" font-size="11" transform="matrix(0.984847 0 0 0.988324 332.256 171)">0</text></g><g clip-path="url(#clip12)"><text fill="#595959" font-family="Times New Roman,Times New Roman_MSFontService,sans-serif" font-weight="400" font-size="11" transform="matrix(0.984847 0 0 0.988324 324.131 149)">0</text><text fill="#595959" font-family="Times New Roman,Times New Roman_MSFontService,sans-serif" font-weight="400" font-size="11" transform="matrix(0.984847 0 0 0.988324 330.041 149)">.</text><text fill="#595959" font-family="Times New Roman,Times New Roman_MSFontService,sans-serif" font-weight="400" font-size="11" transform="matrix(0.984847 0 0 0.988324 332.995 149)">1</text></g><g clip-path="url(#clip13)"><text fill="#595959" font-family="Times New Roman,Times New Roman_MSFontService,sans-serif" font-weight="400" font-size="11" transform="matrix(0.984847 0 0 0.988324 324.131 127)">0</text><text fill="#595959" font-family="Times New Roman,Times New Roman_MSFontService,sans-serif" font-weight="400" font-size="11" transform="matrix(0.984847 0 0 0.988324 330.041 127)">.</text><text fill="#595959" font-family="Times New Roman,Times New Roman_MSFontService,sans-serif" font-weight="400" font-size="11" transform="matrix(0.984847 0 0 0.988324 332.995 127)">2</text></g><g clip-path="url(#clip14)"><text fill="#595959" font-family="Times New Roman,Times New Roman_MSFontService,sans-serif" font-weight="400" font-size="11" transform="matrix(0.984847 0 0 0.988324 324.131 104)">0</text><text fill="#595959" font-family="Times New Roman,Times New Roman_MSFontService,sans-serif" font-weight="400" font-size="11" transform="matrix(0.984847 0 0 0.988324 330.041 104)">.</text><text fill="#595959" font-family="Times New Roman,Times New Roman_MSFontService,sans-serif" font-weight="400" font-size="11" transform="matrix(0.984847 0 0 0.988324 332.995 104)">3</text></g><g clip-path="url(#clip15)"><text fill="#595959" font-family="Times New Roman,Times New Roman_MSFontService,sans-serif" font-weight="400" font-size="11" transform="matrix(0.984847 0 0 0.988324 324.131 81)">0</text><text fill="#595959" font-family="Times New Roman,Times New Roman_MSFontService,sans-serif" font-weight="400" font-size="11" transform="matrix(0.984847 0 0 0.988324 330.041 81)">.</text><text fill="#595959" font-family="Times New Roman,Times New Roman_MSFontService,sans-serif" font-weight="400" font-size="11" transform="matrix(0.984847 0 0 0.988324 332.995 81)">4</text></g><g clip-path="url(#clip16)"><text fill="#595959" font-family="Times New Roman,Times New Roman_MSFontService,sans-serif" font-weight="400" font-size="11" transform="matrix(0.984847 0 0 0.988324 324.131 58)">0</text><text fill="#595959" font-family="Times New Roman,Times New Roman_MSFontService,sans-serif" font-weight="400" font-size="11" transform="matrix(0.984847 0 0 0.988324 330.041 58)">.</text><text fill="#595959" font-family="Times New Roman,Times New Roman_MSFontService,sans-serif" font-weight="400" font-size="11" transform="matrix(0.984847 0 0 0.988324 332.995 58)">5</text></g><g clip-path="url(#clip17)"><text fill="#595959" font-family="Times New Roman,Times New Roman_MSFontService,sans-serif" font-weight="400" font-size="11" transform="matrix(0.984847 0 0 0.988324 324.131 37)">0</text><text fill="#595959" font-family="Times New Roman,Times New Roman_MSFontService,sans-serif" font-weight="400" font-size="11" transform="matrix(0.984847 0 0 0.988324 330.041 37)">.</text><text fill="#595959" font-family="Times New Roman,Times New Roman_MSFontService,sans-serif" font-weight="400" font-size="11" transform="matrix(0.984847 0 0 0.988324 332.995 37)">6</text></g><g clip-path="url(#clip18)"><text fill="#595959" font-family="Times New Roman,Times New Roman_MSFontService,sans-serif" font-weight="400" font-size="11" transform="matrix(0.984847 0 0 0.988324 324.131 14)">0</text><text fill="#595959" font-family="Times New Roman,Times New Roman_MSFontService,sans-serif" font-weight="400" font-size="11" transform="matrix(0.984847 0 0 0.988324 330.041 14)">.</text><text fill="#595959" font-family="Times New Roman,Times New Roman_MSFontService,sans-serif" font-weight="400" font-size="11" transform="matrix(0.984847 0 0 0.988324 332.995 14)">7</text></g><g clip-path="url(#clip19)"><text fill="#595959" font-family="Times New Roman,Times New Roman_MSFontService,sans-serif" font-weight="400" font-size="11" transform="matrix(0.984847 0 0 0.988324 350.259 185)">0</text></g><g clip-path="url(#clip20)"><text fill="#595959" font-family="Times New Roman,Times New Roman_MSFontService,sans-serif" font-weight="400" font-size="11" transform="matrix(0.984847 0 0 0.988324 374.591 185)">2</text></g><g clip-path="url(#clip21)"><text fill="#595959" font-family="Times New Roman,Times New Roman_MSFontService,sans-serif" font-weight="400" font-size="11" transform="matrix(0.984847 0 0 0.988324 398.922 185)">4</text></g><g clip-path="url(#clip22)"><text fill="#595959" font-family="Times New Roman,Times New Roman_MSFontService,sans-serif" font-weight="400" font-size="11" transform="matrix(0.984847 0 0 0.988324 423.252 185)">6</text></g><g clip-path="url(#clip23)"><text fill="#595959" font-family="Times New Roman,Times New Roman_MSFontService,sans-serif" font-weight="400" font-size="11" transform="matrix(0.984847 0 0 0.988324 447.584 185)">8</text></g><g clip-path="url(#clip24)"><text fill="#595959" font-family="Times New Roman,Times New Roman_MSFontService,sans-serif" font-weight="400" font-size="11" transform="matrix(0.984847 0 0 0.988324 469.206 185)">10</text></g><g clip-path="url(#clip25)"><text fill="#595959" font-family="Times New Roman,Times New Roman_MSFontService,sans-serif" font-weight="400" font-size="11" transform="matrix(0.984847 0 0 0.988324 493.537 185)">12</text></g><g clip-path="url(#clip26)"><text fill="#595959" font-family="Times New Roman,Times New Roman_MSFontService,sans-serif" font-weight="400" font-size="11" transform="matrix(0.984847 0 0 0.988324 517.868 185)">14</text></g><g clip-path="url(#clip27)"><text fill="#595959" font-family="Times New Roman,Times New Roman_MSFontService,sans-serif" font-weight="400" font-size="11" transform="matrix(0.984847 0 0 0.988324 542.199 185)">16</text></g><g clip-path="url(#clip28)"><text fill="#595959" font-family="Times New Roman,Times New Roman_MSFontService,sans-serif" font-weight="400" font-size="11" transform="matrix(0.984847 0 0 0.988324 566.53 185)">18</text></g><g clip-path="url(#clip29)"><text fill="#595959" font-family="Times New Roman,Times New Roman_MSFontService,sans-serif" font-weight="400" font-size="11" transform="matrix(0.984847 0 0 0.988324 590.86 185)">20</text></g><g clip-path="url(#clip30)"><text fill="#595959" font-family="Times New Roman,Times New Roman_MSFontService,sans-serif" font-weight="400" font-size="13" transform="matrix(6.03044e-17 -0.988324 0.984847 6.05174e-17 318.823 136)">Image distribution</text></g><g clip-path="url(#clip31)"><text fill="#595959" font-family="Times New Roman,Times New Roman_MSFontService,sans-serif" font-weight="400" font-size="13" transform="matrix(0.984847 0 0 0.988324 386.282 202)">Number of categories on an image</text></g><g clip-path="url(#clip32)"><path d="M680.529 130 699.241 130" stroke="#4472C4" stroke-width="2.21591" stroke-linecap="round" stroke-linejoin="round" stroke-miterlimit="10" fill="none" fill-rule="evenodd" transform="matrix(1 0 0 1.00353 -236.022 -100.809)"/></g><g clip-path="url(#clip33)"><path d="M691.363 130C691.363 131.088 690.481 131.969 689.393 131.969 688.305 131.969 687.423 131.088 687.423 130 687.423 128.912 688.305 128.03 689.393 128.03 690.481 128.03 691.363 128.912 691.363 130Z" stroke="#4472C4" stroke-width="0.738635" stroke-linejoin="round" stroke-miterlimit="10" fill="#4472C4" transform="matrix(1 0 0 1.00353 -236.022 -100.809)"/></g><g clip-path="url(#clip34)"><text fill="#595959" font-family="Times New Roman,Times New Roman_MSFontService,sans-serif" font-weight="400" font-size="11" transform="matrix(0.984847 0 0 0.988324 465.166 34)">COCO</text></g><g clip-path="url(#clip35)"><path d="M762.272 130 780.984 130" stroke="#ED7D31" stroke-width="2.21591" stroke-linecap="round" stroke-linejoin="round" stroke-miterlimit="10" fill="none" fill-rule="evenodd" transform="matrix(1 0 0 1.00353 -236.022 -100.809)"/></g><g clip-path="url(#clip36)"><path d="M775.567 134.432 768.673 127.538M771.628 127.538 771.628 134.432M768.673 134.432 775.567 127.538" stroke="#ED7D31" stroke-width="0.738635" stroke-linejoin="round" stroke-miterlimit="10" fill="none" transform="matrix(1 0 0 1.00353 -236.022 -100.809)"/></g><g clip-path="url(#clip37)"><text fill="#595959" font-family="Times New Roman,Times New Roman_MSFontService,sans-serif" font-weight="400" font-size="11" transform="matrix(0.984847 0 0 0.988324 546.806 34)">HIOD</text></g><g clip-path="url(#clip38)"><path d="M680.529 148.712 699.241 148.712" stroke="#A5A5A5" stroke-width="2.21591" stroke-linecap="round" stroke-linejoin="round" stroke-miterlimit="10" fill="none" fill-rule="evenodd" transform="matrix(1 0 0 1.00353 -236.022 -100.809)"/></g><g clip-path="url(#clip39)"><path d="M689.885 146.25 692.84 152.159 686.931 152.159Z" stroke="#A5A5A5" stroke-width="0.738635" stroke-linejoin="round" stroke-miterlimit="10" fill="#A5A5A5" transform="matrix(1 0 0 1.00353 -236.022 -100.809)"/></g><g clip-path="url(#clip40)"><text fill="#595959" font-family="Times New Roman,Times New Roman_MSFontService,sans-serif" font-weight="400" font-size="11" transform="matrix(0.984847 0 0 0.988324 465.166 51)">OpenImages</text></g><g clip-path="url(#clip41)"><path d="M762.272 148.712 780.984 148.712" stroke="#FFC000" stroke-width="2.21591" stroke-linecap="round" stroke-linejoin="round" stroke-miterlimit="10" fill="none" fill-rule="evenodd" transform="matrix(1 0 0 1.00353 -236.022 -100.809)"/></g><g clip-path="url(#clip42)"><path d="M768.673 146.25 772.612 146.25 772.612 150.189 768.673 150.189Z" stroke="#FFC000" stroke-width="0.738635" stroke-linejoin="round" stroke-miterlimit="10" fill="#FFC000" transform="matrix(1 0 0 1.00353 -236.022 -100.809)"/></g><g clip-path="url(#clip43)"><text fill="#595959" font-family="Times New Roman,Times New Roman_MSFontService,sans-serif" font-weight="400" font-size="11" transform="matrix(0.984847 0 0 0.988324 546.806 51)">VOC</text></g><path d="M225.53 100.454 544.62 100.454 544.62 316.136 225.53 316.136Z" fill="#FFFFFF" transform="matrix(1 0 0 1.00353 -236.022 -100.809)"/><g clip-path="url(#clip44)"><path d="M278.219 236.856 533.295 236.856M278.219 205.341 533.295 205.341M278.219 173.825 533.295 173.825M278.219 142.31 533.295 142.31M278.219 110.795 533.295 110.795" stroke="#D9D9D9" stroke-width="0.738635" stroke-linejoin="round" stroke-miterlimit="10" stroke-dasharray="2.95454 2.21591" fill="none" transform="matrix(1 0 0 1.00353 -236.022 -100.809)"/></g><g clip-path="url(#clip45)"><path d="M278.219 267.386 533.295 267.386" stroke="#D9D9D9" stroke-width="0.738635" stroke-linejoin="round" stroke-miterlimit="10" fill="none" fill-rule="evenodd" transform="matrix(1 0 0 1.00353 -236.022 -100.809)"/></g><g clip-path="url(#clip46)"><path d="M283.636 267.878 296.439 230.454 308.257 210.757 321.06 230.454 332.878 241.288 344.696 247.197 357.499 251.136 369.318 254.091 381.136 256.06 393.939 258.03 405.757 259.015 417.575 260 430.378 260.984 442.196 260.984 454.999 260.984 466.817 261.969 478.636 261.969 491.439 262.954 503.257 263.939 515.075 264.924 527.878 264.924" stroke="#4472C4" stroke-width="2.21591" stroke-linecap="round" stroke-linejoin="round" stroke-miterlimit="10" fill="none" transform="matrix(1 0 0 1.00353 -236.022 -100.809)"/></g><g clip-path="url(#clip47)"><path d="M286.343 266.116C286.343 267.748 285.021 269.071 283.389 269.071 281.757 269.071 280.434 267.748 280.434 266.116 280.434 264.485 281.757 263.162 283.389 263.162 285.021 263.162 286.343 264.485 286.343 266.116Z" stroke="#4472C4" stroke-width="0.738635" stroke-linejoin="round" stroke-miterlimit="10" fill="#4472C4" transform="matrix(1 0 0 1.00353 -236.022 -100.809)"/><path d="M298.161 229.677C298.161 231.309 296.839 232.632 295.207 232.632 293.575 232.632 292.252 231.309 292.252 229.677 292.252 228.045 293.575 226.723 295.207 226.723 296.839 226.723 298.161 228.045 298.161 229.677Z" stroke="#4472C4" stroke-width="0.738635" stroke-linejoin="round" stroke-miterlimit="10" fill="#4472C4" transform="matrix(1 0 0 1.00353 -236.022 -100.809)"/><path d="M310.964 208.995C310.964 210.627 309.642 211.95 308.01 211.95 306.378 211.95 305.055 210.627 305.055 208.995 305.055 207.363 306.378 206.041 308.01 206.041 309.642 206.041 310.964 207.363 310.964 208.995Z" stroke="#4472C4" stroke-width="0.738635" stroke-linejoin="round" stroke-miterlimit="10" fill="#4472C4" transform="matrix(1 0 0 1.00353 -236.022 -100.809)"/><path d="M322.783 229.677C322.783 231.309 321.46 232.632 319.828 232.632 318.196 232.632 316.874 231.309 316.874 229.677 316.874 228.045 318.196 226.723 319.828 226.723 321.46 226.723 322.783 228.045 322.783 229.677Z" stroke="#4472C4" stroke-width="0.738635" stroke-linejoin="round" stroke-miterlimit="10" fill="#4472C4" transform="matrix(1 0 0 1.00353 -236.022 -100.809)"/><path d="M334.601 239.526C334.601 241.158 333.278 242.48 331.646 242.48 330.014 242.48 328.692 241.158 328.692 239.526 328.692 237.894 330.014 236.571 331.646 236.571 333.278 236.571 334.601 237.894 334.601 239.526Z" stroke="#4472C4" stroke-width="0.738635" stroke-linejoin="round" stroke-miterlimit="10" fill="#4472C4" transform="matrix(1 0 0 1.00353 -236.022 -100.809)"/><path d="M347.404 246.42C347.404 248.051 346.081 249.374 344.449 249.374 342.817 249.374 341.495 248.051 341.495 246.42 341.495 244.788 342.817 243.465 344.449 243.465 346.081 243.465 347.404 244.788 347.404 246.42Z" stroke="#4472C4" stroke-width="0.738635" stroke-linejoin="round" stroke-miterlimit="10" fill="#4472C4" transform="matrix(1 0 0 1.00353 -236.022 -100.809)"/><path d="M359.222 250.359C359.222 251.991 357.899 253.313 356.267 253.313 354.636 253.313 353.313 251.991 353.313 250.359 353.313 248.727 354.636 247.404 356.267 247.404 357.899 247.404 359.222 248.727 359.222 250.359Z" stroke="#4472C4" stroke-width="0.738635" stroke-linejoin="round" stroke-miterlimit="10" fill="#4472C4" transform="matrix(1 0 0 1.00353 -236.022 -100.809)"/><path d="M371.04 253.313C371.04 254.945 369.717 256.268 368.086 256.268 366.454 256.268 365.131 254.945 365.131 253.313 365.131 251.682 366.454 250.359 368.086 250.359 369.717 250.359 371.04 251.682 371.04 253.313Z" stroke="#4472C4" stroke-width="0.738635" stroke-linejoin="round" stroke-miterlimit="10" fill="#4472C4" transform="matrix(1 0 0 1.00353 -236.022 -100.809)"/><path d="M383.843 255.283C383.843 256.915 382.52 258.238 380.889 258.238 379.257 258.238 377.934 256.915 377.934 255.283 377.934 253.651 379.257 252.329 380.889 252.329 382.52 252.329 383.843 253.651 383.843 255.283Z" stroke="#4472C4" stroke-width="0.738635" stroke-linejoin="round" stroke-miterlimit="10" fill="#4472C4" transform="matrix(1 0 0 1.00353 -236.022 -100.809)"/><path d="M395.661 257.253C395.661 258.885 394.339 260.207 392.707 260.207 391.075 260.207 389.752 258.885 389.752 257.253 389.752 255.621 391.075 254.298 392.707 254.298 394.339 254.298 395.661 255.621 395.661 257.253Z" stroke="#4472C4" stroke-width="0.738635" stroke-linejoin="round" stroke-miterlimit="10" fill="#4472C4" transform="matrix(1 0 0 1.00353 -236.022 -100.809)"/><path d="M408.464 258.238C408.464 259.87 407.142 261.192 405.51 261.192 403.878 261.192 402.555 259.87 402.555 258.238 402.555 256.606 403.878 255.283 405.51 255.283 407.142 255.283 408.464 256.606 408.464 258.238Z" stroke="#4472C4" stroke-width="0.738635" stroke-linejoin="round" stroke-miterlimit="10" fill="#4472C4" transform="matrix(1 0 0 1.00353 -236.022 -100.809)"/><path d="M420.282 259.223C420.282 260.854 418.96 262.177 417.328 262.177 415.696 262.177 414.373 260.854 414.373 259.223 414.373 257.591 415.696 256.268 417.328 256.268 418.96 256.268 420.282 257.591 420.282 259.223Z" stroke="#4472C4" stroke-width="0.738635" stroke-linejoin="round" stroke-miterlimit="10" fill="#4472C4" transform="matrix(1 0 0 1.00353 -236.022 -100.809)"/><path d="M432.101 260.207C432.101 261.839 430.778 263.162 429.146 263.162 427.514 263.162 426.192 261.839 426.192 260.207 426.192 258.576 427.514 257.253 429.146 257.253 430.778 257.253 432.101 258.576 432.101 260.207Z" stroke="#4472C4" stroke-width="0.738635" stroke-linejoin="round" stroke-miterlimit="10" fill="#4472C4" transform="matrix(1 0 0 1.00353 -236.022 -100.809)"/><path d="M444.904 259.223C444.904 260.854 443.581 262.177 441.949 262.177 440.317 262.177 438.995 260.854 438.995 259.223 438.995 257.591 440.317 256.268 441.949 256.268 443.581 256.268 444.904 257.591 444.904 259.223Z" stroke="#4472C4" stroke-width="0.738635" stroke-linejoin="round" stroke-miterlimit="10" fill="#4472C4" transform="matrix(1 0 0 1.00353 -236.022 -100.809)"/><path d="M456.722 259.223C456.722 260.854 455.399 262.177 453.767 262.177 452.135 262.177 450.813 260.854 450.813 259.223 450.813 257.591 452.135 256.268 453.767 256.268 455.399 256.268 456.722 257.591 456.722 259.223Z" stroke="#4472C4" stroke-width="0.738635" stroke-linejoin="round" stroke-miterlimit="10" fill="#4472C4" transform="matrix(1 0 0 1.00353 -236.022 -100.809)"/><path d="M468.54 260.207C468.54 261.839 467.217 263.162 465.585 263.162 463.954 263.162 462.631 261.839 462.631 260.207 462.631 258.576 463.954 257.253 465.585 257.253 467.217 257.253 468.54 258.576 468.54 260.207Z" stroke="#4472C4" stroke-width="0.738635" stroke-linejoin="round" stroke-miterlimit="10" fill="#4472C4" transform="matrix(1 0 0 1.00353 -236.022 -100.809)"/><path d="M481.343 261.192C481.343 262.824 480.02 264.147 478.388 264.147 476.757 264.147 475.434 262.824 475.434 261.192 475.434 259.56 476.757 258.238 478.388 258.238 480.02 258.238 481.343 259.56 481.343 261.192Z" stroke="#4472C4" stroke-width="0.738635" stroke-linejoin="round" stroke-miterlimit="10" fill="#4472C4" transform="matrix(1 0 0 1.00353 -236.022 -100.809)"/><path d="M493.161 262.177C493.161 263.809 491.838 265.132 490.207 265.132 488.575 265.132 487.252 263.809 487.252 262.177 487.252 260.545 488.575 259.223 490.207 259.223 491.838 259.223 493.161 260.545 493.161 262.177Z" stroke="#4472C4" stroke-width="0.738635" stroke-linejoin="round" stroke-miterlimit="10" fill="#4472C4" transform="matrix(1 0 0 1.00353 -236.022 -100.809)"/><path d="M504.979 262.177C504.979 263.809 503.657 265.132 502.025 265.132 500.393 265.132 499.07 263.809 499.07 262.177 499.07 260.545 500.393 259.223 502.025 259.223 503.657 259.223 504.979 260.545 504.979 262.177Z" stroke="#4472C4" stroke-width="0.738635" stroke-linejoin="round" stroke-miterlimit="10" fill="#4472C4" transform="matrix(1 0 0 1.00353 -236.022 -100.809)"/><path d="M517.782 263.162C517.782 264.794 516.46 266.116 514.828 266.116 513.196 266.116 511.873 264.794 511.873 263.162 511.873 261.53 513.196 260.207 514.828 260.207 516.46 260.207 517.782 261.53 517.782 263.162Z" stroke="#4472C4" stroke-width="0.738635" stroke-linejoin="round" stroke-miterlimit="10" fill="#4472C4" transform="matrix(1 0 0 1.00353 -236.022 -100.809)"/><path d="M529.6 263.162C529.6 264.794 528.278 266.116 526.646 266.116 525.014 266.116 523.691 264.794 523.691 263.162 523.691 261.53 525.014 260.207 526.646 260.207 528.278 260.207 529.6 261.53 529.6 263.162Z" stroke="#4472C4" stroke-width="0.738635" stroke-linejoin="round" stroke-miterlimit="10" fill="#4472C4" transform="matrix(1 0 0 1.00353 -236.022 -100.809)"/></g><g clip-path="url(#clip48)"><path d="M283.636 267.878 296.439 261.969 308.257 259.015 321.06 255.075 332.878 251.136 344.696 251.136 357.499 246.212 369.318 248.181 381.136 249.166 393.939 246.212 405.757 249.166 417.575 250.151 430.378 250.151 442.196 253.106 454.999 255.075 466.817 255.075 478.636 259.015 491.439 259.015 503.257 260 515.075 260 527.878 261.969" stroke="#ED7D31" stroke-width="2.21591" stroke-linecap="round" stroke-linejoin="round" stroke-miterlimit="10" fill="none" transform="matrix(1 0 0 1.00353 -236.022 -100.809)"/></g><g clip-path="url(#clip49)"><path d="M287.821 270.548 280.927 263.654M284.374 263.654 284.374 270.548M280.927 270.548 287.821 263.654" stroke="#ED7D31" stroke-width="0.738635" stroke-linejoin="round" stroke-miterlimit="10" fill="none" transform="matrix(1 0 0 1.00353 -236.022 -100.809)"/><path d="M299.639 265.624 292.745 258.73M296.192 258.73 296.192 265.624M292.745 265.624 299.639 258.73" stroke="#ED7D31" stroke-width="0.738635" stroke-linejoin="round" stroke-miterlimit="10" fill="none" transform="matrix(1 0 0 1.00353 -236.022 -100.809)"/><path d="M312.442 262.67 305.548 255.776M308.995 255.776 308.995 262.67M305.548 262.67 312.442 255.776" stroke="#ED7D31" stroke-width="0.738635" stroke-linejoin="round" stroke-miterlimit="10" fill="none" transform="matrix(1 0 0 1.00353 -236.022 -100.809)"/><path d="M324.26 257.745 317.366 250.851M320.813 250.851 320.813 257.745M317.366 257.745 324.26 250.851" stroke="#ED7D31" stroke-width="0.738635" stroke-linejoin="round" stroke-miterlimit="10" fill="none" transform="matrix(1 0 0 1.00353 -236.022 -100.809)"/><path d="M336.078 253.806 329.184 246.912M332.631 246.912 332.631 253.806M329.184 253.806 336.078 246.912" stroke="#ED7D31" stroke-width="0.738635" stroke-linejoin="round" stroke-miterlimit="10" fill="none" transform="matrix(1 0 0 1.00353 -236.022 -100.809)"/><path d="M348.881 253.806 341.987 246.912M345.434 246.912 345.434 253.806M341.987 253.806 348.881 246.912" stroke="#ED7D31" stroke-width="0.738635" stroke-linejoin="round" stroke-miterlimit="10" fill="none" transform="matrix(1 0 0 1.00353 -236.022 -100.809)"/><path d="M360.699 249.867 353.805 242.973M357.252 242.973 357.252 249.867M353.805 249.867 360.699 242.973" stroke="#ED7D31" stroke-width="0.738635" stroke-linejoin="round" stroke-miterlimit="10" fill="none" transform="matrix(1 0 0 1.00353 -236.022 -100.809)"/><path d="M372.517 251.836 365.623 244.942M369.07 244.942 369.07 251.836M365.623 251.836 372.517 244.942" stroke="#ED7D31" stroke-width="0.738635" stroke-linejoin="round" stroke-miterlimit="10" fill="none" transform="matrix(1 0 0 1.00353 -236.022 -100.809)"/><path d="M385.32 251.836 378.426 244.942M381.873 244.942 381.873 251.836M378.426 251.836 385.32 244.942" stroke="#ED7D31" stroke-width="0.738635" stroke-linejoin="round" stroke-miterlimit="10" fill="none" transform="matrix(1 0 0 1.00353 -236.022 -100.809)"/><path d="M397.139 248.882 390.245 241.988M393.692 241.988 393.692 248.882M390.245 248.882 397.139 241.988" stroke="#ED7D31" stroke-width="0.738635" stroke-linejoin="round" stroke-miterlimit="10" fill="none" transform="matrix(1 0 0 1.00353 -236.022 -100.809)"/><path d="M409.942 251.836 403.048 244.942M406.495 244.942 406.495 251.836M403.048 251.836 409.942 244.942" stroke="#ED7D31" stroke-width="0.738635" stroke-linejoin="round" stroke-miterlimit="10" fill="none" transform="matrix(1 0 0 1.00353 -236.022 -100.809)"/><path d="M421.76 252.821 414.866 245.927M418.313 245.927 418.313 252.821M414.866 252.821 421.76 245.927" stroke="#ED7D31" stroke-width="0.738635" stroke-linejoin="round" stroke-miterlimit="10" fill="none" transform="matrix(1 0 0 1.00353 -236.022 -100.809)"/><path d="M433.578 252.821 426.684 245.927M430.131 245.927 430.131 252.821M426.684 252.821 433.578 245.927" stroke="#ED7D31" stroke-width="0.738635" stroke-linejoin="round" stroke-miterlimit="10" fill="none" transform="matrix(1 0 0 1.00353 -236.022 -100.809)"/><path d="M446.381 256.76 439.487 249.867M442.934 249.867 442.934 256.76M439.487 256.76 446.381 249.867" stroke="#ED7D31" stroke-width="0.738635" stroke-linejoin="round" stroke-miterlimit="10" fill="none" transform="matrix(1 0 0 1.00353 -236.022 -100.809)"/><path d="M458.199 257.745 451.305 250.851M454.752 250.851 454.752 257.745M451.305 257.745 458.199 250.851" stroke="#ED7D31" stroke-width="0.738635" stroke-linejoin="round" stroke-miterlimit="10" fill="none" transform="matrix(1 0 0 1.00353 -236.022 -100.809)"/><path d="M470.017 257.745 463.123 250.851M466.57 250.851 466.57 257.745M463.123 257.745 470.017 250.851" stroke="#ED7D31" stroke-width="0.738635" stroke-linejoin="round" stroke-miterlimit="10" fill="none" transform="matrix(1 0 0 1.00353 -236.022 -100.809)"/><path d="M482.82 261.685 475.926 254.791M479.373 254.791 479.373 261.685M475.926 261.685 482.82 254.791" stroke="#ED7D31" stroke-width="0.738635" stroke-linejoin="round" stroke-miterlimit="10" fill="none" transform="matrix(1 0 0 1.00353 -236.022 -100.809)"/><path d="M494.638 261.685 487.744 254.791M491.191 254.791 491.191 261.685M487.744 261.685 494.638 254.791" stroke="#ED7D31" stroke-width="0.738635" stroke-linejoin="round" stroke-miterlimit="10" fill="none" transform="matrix(1 0 0 1.00353 -236.022 -100.809)"/><path d="M506.457 262.67 499.563 255.776M503.01 255.776 503.01 262.67M499.563 262.67 506.457 255.776" stroke="#ED7D31" stroke-width="0.738635" stroke-linejoin="round" stroke-miterlimit="10" fill="none" transform="matrix(1 0 0 1.00353 -236.022 -100.809)"/><path d="M519.26 263.654 512.366 256.76M515.813 256.76 515.813 263.654M512.366 263.654 519.26 256.76" stroke="#ED7D31" stroke-width="0.738635" stroke-linejoin="round" stroke-miterlimit="10" fill="none" transform="matrix(1 0 0 1.00353 -236.022 -100.809)"/><path d="M531.078 265.624 524.184 258.73M527.631 258.73 527.631 265.624M524.184 265.624 531.078 258.73" stroke="#ED7D31" stroke-width="0.738635" stroke-linejoin="round" stroke-miterlimit="10" fill="none" transform="matrix(1 0 0 1.00353 -236.022 -100.809)"/></g><g clip-path="url(#clip50)"><path d="M283.636 267.878 296.439 200.909 308.257 226.515 321.06 235.378 332.878 243.257 344.696 249.166 357.499 252.121 369.318 255.075 381.136 257.045 393.939 258.03 405.757 260 417.575 260.984 430.378 261.969 442.196 262.954 454.999 262.954 466.817 263.939 478.636 263.939 491.439 264.924 503.257 264.924 515.075 264.924 527.878 265.909" stroke="#A5A5A5" stroke-width="2.21591" stroke-linecap="round" stroke-linejoin="round" stroke-miterlimit="10" fill="none" transform="matrix(1 0 0 1.00353 -236.022 -100.809)"/></g><g clip-path="url(#clip51)"><path d="M284.374 264.147 287.328 270.056 281.419 270.056Z" stroke="#A5A5A5" stroke-width="0.738635" stroke-linejoin="round" stroke-miterlimit="10" fill="#A5A5A5" transform="matrix(1 0 0 1.00353 -236.022 -100.809)"/><path d="M296.192 198.162 299.146 204.071 293.237 204.071Z" stroke="#A5A5A5" stroke-width="0.738635" stroke-linejoin="round" stroke-miterlimit="10" fill="#A5A5A5" transform="matrix(1 0 0 1.00353 -236.022 -100.809)"/><path d="M308.995 222.783 311.949 228.692 306.04 228.692Z" stroke="#A5A5A5" stroke-width="0.738635" stroke-linejoin="round" stroke-miterlimit="10" fill="#A5A5A5" transform="matrix(1 0 0 1.00353 -236.022 -100.809)"/><path d="M320.813 232.632 323.767 238.541 317.858 238.541Z" stroke="#A5A5A5" stroke-width="0.738635" stroke-linejoin="round" stroke-miterlimit="10" fill="#A5A5A5" transform="matrix(1 0 0 1.00353 -236.022 -100.809)"/><path d="M332.631 240.51 335.586 246.42 329.677 246.42Z" stroke="#A5A5A5" stroke-width="0.738635" stroke-linejoin="round" stroke-miterlimit="10" fill="#A5A5A5" transform="matrix(1 0 0 1.00353 -236.022 -100.809)"/><path d="M345.434 246.42 348.389 252.329 342.48 252.329Z" stroke="#A5A5A5" stroke-width="0.738635" stroke-linejoin="round" stroke-miterlimit="10" fill="#A5A5A5" transform="matrix(1 0 0 1.00353 -236.022 -100.809)"/><path d="M357.252 248.389 360.207 254.298 354.298 254.298Z" stroke="#A5A5A5" stroke-width="0.738635" stroke-linejoin="round" stroke-miterlimit="10" fill="#A5A5A5" transform="matrix(1 0 0 1.00353 -236.022 -100.809)"/><path d="M369.07 251.344 372.025 257.253 366.116 257.253Z" stroke="#A5A5A5" stroke-width="0.738635" stroke-linejoin="round" stroke-miterlimit="10" fill="#A5A5A5" transform="matrix(1 0 0 1.00353 -236.022 -100.809)"/><path d="M381.873 253.313 384.828 259.223 378.919 259.223Z" stroke="#A5A5A5" stroke-width="0.738635" stroke-linejoin="round" stroke-miterlimit="10" fill="#A5A5A5" transform="matrix(1 0 0 1.00353 -236.022 -100.809)"/><path d="M393.692 255.283 396.646 261.192 390.737 261.192Z" stroke="#A5A5A5" stroke-width="0.738635" stroke-linejoin="round" stroke-miterlimit="10" fill="#A5A5A5" transform="matrix(1 0 0 1.00353 -236.022 -100.809)"/><path d="M406.495 256.268 409.449 262.177 403.54 262.177Z" stroke="#A5A5A5" stroke-width="0.738635" stroke-linejoin="round" stroke-miterlimit="10" fill="#A5A5A5" transform="matrix(1 0 0 1.00353 -236.022 -100.809)"/><path d="M418.313 257.253 421.267 263.162 415.358 263.162Z" stroke="#A5A5A5" stroke-width="0.738635" stroke-linejoin="round" stroke-miterlimit="10" fill="#A5A5A5" transform="matrix(1 0 0 1.00353 -236.022 -100.809)"/><path d="M430.131 258.238 433.085 264.147 427.176 264.147Z" stroke="#A5A5A5" stroke-width="0.738635" stroke-linejoin="round" stroke-miterlimit="10" fill="#A5A5A5" transform="matrix(1 0 0 1.00353 -236.022 -100.809)"/><path d="M442.934 259.223 445.888 265.132 439.979 265.132Z" stroke="#A5A5A5" stroke-width="0.738635" stroke-linejoin="round" stroke-miterlimit="10" fill="#A5A5A5" transform="matrix(1 0 0 1.00353 -236.022 -100.809)"/><path d="M454.752 260.207 457.707 266.116 451.798 266.116Z" stroke="#A5A5A5" stroke-width="0.738635" stroke-linejoin="round" stroke-miterlimit="10" fill="#A5A5A5" transform="matrix(1 0 0 1.00353 -236.022 -100.809)"/><path d="M466.57 260.207 469.525 266.116 463.616 266.116Z" stroke="#A5A5A5" stroke-width="0.738635" stroke-linejoin="round" stroke-miterlimit="10" fill="#A5A5A5" transform="matrix(1 0 0 1.00353 -236.022 -100.809)"/><path d="M479.373 261.192 482.328 267.101 476.419 267.101Z" stroke="#A5A5A5" stroke-width="0.738635" stroke-linejoin="round" stroke-miterlimit="10" fill="#A5A5A5" transform="matrix(1 0 0 1.00353 -236.022 -100.809)"/><path d="M491.191 261.192 494.146 267.101 488.237 267.101Z" stroke="#A5A5A5" stroke-width="0.738635" stroke-linejoin="round" stroke-miterlimit="10" fill="#A5A5A5" transform="matrix(1 0 0 1.00353 -236.022 -100.809)"/><path d="M503.01 261.192 505.964 267.101 500.055 267.101Z" stroke="#A5A5A5" stroke-width="0.738635" stroke-linejoin="round" stroke-miterlimit="10" fill="#A5A5A5" transform="matrix(1 0 0 1.00353 -236.022 -100.809)"/><path d="M515.813 262.177 518.767 268.086 512.858 268.086Z" stroke="#A5A5A5" stroke-width="0.738635" stroke-linejoin="round" stroke-miterlimit="10" fill="#A5A5A5" transform="matrix(1 0 0 1.00353 -236.022 -100.809)"/><path d="M527.631 262.177 530.585 268.086 524.676 268.086Z" stroke="#A5A5A5" stroke-width="0.738635" stroke-linejoin="round" stroke-miterlimit="10" fill="#A5A5A5" transform="matrix(1 0 0 1.00353 -236.022 -100.809)"/></g><g clip-path="url(#clip52)"><path d="M283.636 267.878 296.439 131.969 308.257 197.954 321.06 231.439 332.878 245.227 344.696 253.106 357.499 258.03 369.318 261.969 381.136 262.954 393.939 264.924 405.757 264.924 417.575 266.894 430.378 266.894 442.196 266.894 454.999 266.894 466.817 267.878 478.636 267.878 491.439 267.878 503.257 267.878 515.075 267.878 527.878 267.878" stroke="#FFC000" stroke-width="2.21591" stroke-linecap="round" stroke-linejoin="round" stroke-miterlimit="10" fill="none" transform="matrix(1 0 0 1.00353 -236.022 -100.809)"/></g><g clip-path="url(#clip53)"><path d="M281.419 264.147 285.358 264.147 285.358 268.086 281.419 268.086Z" stroke="#FFC000" stroke-width="0.738635" stroke-linejoin="round" stroke-miterlimit="10" fill="#FFC000" transform="matrix(1 0 0 1.00353 -236.022 -100.809)"/><path d="M293.237 129.223 297.177 129.223 297.177 133.162 293.237 133.162Z" stroke="#FFC000" stroke-width="0.738635" stroke-linejoin="round" stroke-miterlimit="10" fill="#FFC000" transform="matrix(1 0 0 1.00353 -236.022 -100.809)"/><path d="M306.04 194.223 309.98 194.223 309.98 198.162 306.04 198.162Z" stroke="#FFC000" stroke-width="0.738635" stroke-linejoin="round" stroke-miterlimit="10" fill="#FFC000" transform="matrix(1 0 0 1.00353 -236.022 -100.809)"/><path d="M317.858 227.707 321.798 227.707 321.798 231.647 317.858 231.647Z" stroke="#FFC000" stroke-width="0.738635" stroke-linejoin="round" stroke-miterlimit="10" fill="#FFC000" transform="matrix(1 0 0 1.00353 -236.022 -100.809)"/><path d="M329.677 241.495 333.616 241.495 333.616 245.435 329.677 245.435Z" stroke="#FFC000" stroke-width="0.738635" stroke-linejoin="round" stroke-miterlimit="10" fill="#FFC000" transform="matrix(1 0 0 1.00353 -236.022 -100.809)"/><path d="M342.48 250.359 346.419 250.359 346.419 254.298 342.48 254.298Z" stroke="#FFC000" stroke-width="0.738635" stroke-linejoin="round" stroke-miterlimit="10" fill="#FFC000" transform="matrix(1 0 0 1.00353 -236.022 -100.809)"/><path d="M354.298 254.298 358.237 254.298 358.237 258.238 354.298 258.238Z" stroke="#FFC000" stroke-width="0.738635" stroke-linejoin="round" stroke-miterlimit="10" fill="#FFC000" transform="matrix(1 0 0 1.00353 -236.022 -100.809)"/><path d="M366.116 258.238 370.055 258.238 370.055 262.177 366.116 262.177Z" stroke="#FFC000" stroke-width="0.738635" stroke-linejoin="round" stroke-miterlimit="10" fill="#FFC000" transform="matrix(1 0 0 1.00353 -236.022 -100.809)"/><path d="M378.919 259.223 382.858 259.223 382.858 263.162 378.919 263.162Z" stroke="#FFC000" stroke-width="0.738635" stroke-linejoin="round" stroke-miterlimit="10" fill="#FFC000" transform="matrix(1 0 0 1.00353 -236.022 -100.809)"/><path d="M390.737 261.192 394.676 261.192 394.676 265.132 390.737 265.132Z" stroke="#FFC000" stroke-width="0.738635" stroke-linejoin="round" stroke-miterlimit="10" fill="#FFC000" transform="matrix(1 0 0 1.00353 -236.022 -100.809)"/><path d="M403.54 261.192 407.479 261.192 407.479 265.132 403.54 265.132Z" stroke="#FFC000" stroke-width="0.738635" stroke-linejoin="round" stroke-miterlimit="10" fill="#FFC000" transform="matrix(1 0 0 1.00353 -236.022 -100.809)"/><path d="M415.358 263.162 419.298 263.162 419.298 267.101 415.358 267.101Z" stroke="#FFC000" stroke-width="0.738635" stroke-linejoin="round" stroke-miterlimit="10" fill="#FFC000" transform="matrix(1 0 0 1.00353 -236.022 -100.809)"/><path d="M427.176 263.162 431.116 263.162 431.116 267.101 427.176 267.101Z" stroke="#FFC000" stroke-width="0.738635" stroke-linejoin="round" stroke-miterlimit="10" fill="#FFC000" transform="matrix(1 0 0 1.00353 -236.022 -100.809)"/><path d="M439.979 264.147 443.919 264.147 443.919 268.086 439.979 268.086Z" stroke="#FFC000" stroke-width="0.738635" stroke-linejoin="round" stroke-miterlimit="10" fill="#FFC000" transform="matrix(1 0 0 1.00353 -236.022 -100.809)"/><path d="M451.798 264.147 455.737 264.147 455.737 268.086 451.798 268.086Z" stroke="#FFC000" stroke-width="0.738635" stroke-linejoin="round" stroke-miterlimit="10" fill="#FFC000" transform="matrix(1 0 0 1.00353 -236.022 -100.809)"/><path d="M463.616 264.147 467.555 264.147 467.555 268.086 463.616 268.086Z" stroke="#FFC000" stroke-width="0.738635" stroke-linejoin="round" stroke-miterlimit="10" fill="#FFC000" transform="matrix(1 0 0 1.00353 -236.022 -100.809)"/><path d="M476.419 264.147 480.358 264.147 480.358 268.086 476.419 268.086Z" stroke="#FFC000" stroke-width="0.738635" stroke-linejoin="round" stroke-miterlimit="10" fill="#FFC000" transform="matrix(1 0 0 1.00353 -236.022 -100.809)"/><path d="M488.237 264.147 492.176 264.147 492.176 268.086 488.237 268.086Z" stroke="#FFC000" stroke-width="0.738635" stroke-linejoin="round" stroke-miterlimit="10" fill="#FFC000" transform="matrix(1 0 0 1.00353 -236.022 -100.809)"/><path d="M500.055 264.147 503.994 264.147 503.994 268.086 500.055 268.086Z" stroke="#FFC000" stroke-width="0.738635" stroke-linejoin="round" stroke-miterlimit="10" fill="#FFC000" transform="matrix(1 0 0 1.00353 -236.022 -100.809)"/><path d="M512.858 264.147 516.797 264.147 516.797 268.086 512.858 268.086Z" stroke="#FFC000" stroke-width="0.738635" stroke-linejoin="round" stroke-miterlimit="10" fill="#FFC000" transform="matrix(1 0 0 1.00353 -236.022 -100.809)"/><path d="M524.676 264.147 528.616 264.147 528.616 268.086 524.676 268.086Z" stroke="#FFC000" stroke-width="0.738635" stroke-linejoin="round" stroke-miterlimit="10" fill="#FFC000" transform="matrix(1 0 0 1.00353 -236.022 -100.809)"/></g><g clip-path="url(#clip54)"><text fill="#595959" font-family="Times New Roman,Times New Roman_MSFontService,sans-serif" font-weight="400" font-size="11" transform="matrix(0.984847 0 0 0.988324 27.3153 171)">0</text></g><g clip-path="url(#clip55)"><text fill="#595959" font-family="Times New Roman,Times New Roman_MSFontService,sans-serif" font-weight="400" font-size="11" transform="matrix(0.984847 0 0 0.988324 19.1903 139)">0</text><text fill="#595959" font-family="Times New Roman,Times New Roman_MSFontService,sans-serif" font-weight="400" font-size="11" transform="matrix(0.984847 0 0 0.988324 25.0994 139)">.</text><text fill="#595959" font-family="Times New Roman,Times New Roman_MSFontService,sans-serif" font-weight="400" font-size="11" transform="matrix(0.984847 0 0 0.988324 28.054 139)">1</text></g><g clip-path="url(#clip56)"><text fill="#595959" font-family="Times New Roman,Times New Roman_MSFontService,sans-serif" font-weight="400" font-size="11" transform="matrix(0.984847 0 0 0.988324 19.1903 109)">0</text><text fill="#595959" font-family="Times New Roman,Times New Roman_MSFontService,sans-serif" font-weight="400" font-size="11" transform="matrix(0.984847 0 0 0.988324 25.0994 109)">.</text><text fill="#595959" font-family="Times New Roman,Times New Roman_MSFontService,sans-serif" font-weight="400" font-size="11" transform="matrix(0.984847 0 0 0.988324 28.054 109)">2</text></g><g clip-path="url(#clip57)"><text fill="#595959" font-family="Times New Roman,Times New Roman_MSFontService,sans-serif" font-weight="400" font-size="11" transform="matrix(0.984847 0 0 0.988324 19.1903 77)">0</text><text fill="#595959" font-family="Times New Roman,Times New Roman_MSFontService,sans-serif" font-weight="400" font-size="11" transform="matrix(0.984847 0 0 0.988324 25.0994 77)">.</text><text fill="#595959" font-family="Times New Roman,Times New Roman_MSFontService,sans-serif" font-weight="400" font-size="11" transform="matrix(0.984847 0 0 0.988324 28.054 77)">3</text></g><g clip-path="url(#clip58)"><text fill="#595959" font-family="Times New Roman,Times New Roman_MSFontService,sans-serif" font-weight="400" font-size="11" transform="matrix(0.984847 0 0 0.988324 19.1903 45)">0</text><text fill="#595959" font-family="Times New Roman,Times New Roman_MSFontService,sans-serif" font-weight="400" font-size="11" transform="matrix(0.984847 0 0 0.988324 25.0994 45)">.</text><text fill="#595959" font-family="Times New Roman,Times New Roman_MSFontService,sans-serif" font-weight="400" font-size="11" transform="matrix(0.984847 0 0 0.988324 28.054 45)">4</text></g><g clip-path="url(#clip59)"><text fill="#595959" font-family="Times New Roman,Times New Roman_MSFontService,sans-serif" font-weight="400" font-size="11" transform="matrix(0.984847 0 0 0.988324 19.1903 14)">0</text><text fill="#595959" font-family="Times New Roman,Times New Roman_MSFontService,sans-serif" font-weight="400" font-size="11" transform="matrix(0.984847 0 0 0.988324 25.0994 14)">.</text><text fill="#595959" font-family="Times New Roman,Times New Roman_MSFontService,sans-serif" font-weight="400" font-size="11" transform="matrix(0.984847 0 0 0.988324 28.054 14)">5</text></g><g clip-path="url(#clip60)"><text fill="#595959" font-family="Times New Roman,Times New Roman_MSFontService,sans-serif" font-weight="400" font-size="11" transform="matrix(0.984847 0 0 0.988324 45.3242 185)">0</text></g><g clip-path="url(#clip61)"><text fill="#595959" font-family="Times New Roman,Times New Roman_MSFontService,sans-serif" font-weight="400" font-size="11" transform="matrix(0.984847 0 0 0.988324 69.6766 185)">2</text></g><g clip-path="url(#clip62)"><text fill="#595959" font-family="Times New Roman,Times New Roman_MSFontService,sans-serif" font-weight="400" font-size="11" transform="matrix(0.984847 0 0 0.988324 94.0289 185)">4</text></g><g clip-path="url(#clip63)"><text fill="#595959" font-family="Times New Roman,Times New Roman_MSFontService,sans-serif" font-weight="400" font-size="11" transform="matrix(0.984847 0 0 0.988324 118.381 185)">6</text></g><g clip-path="url(#clip64)"><text fill="#595959" font-family="Times New Roman,Times New Roman_MSFontService,sans-serif" font-weight="400" font-size="11" transform="matrix(0.984847 0 0 0.988324 142.734 185)">8</text></g><g clip-path="url(#clip65)"><text fill="#595959" font-family="Times New Roman,Times New Roman_MSFontService,sans-serif" font-weight="400" font-size="11" transform="matrix(0.984847 0 0 0.988324 164.378 185)">10</text></g><g clip-path="url(#clip66)"><text fill="#595959" font-family="Times New Roman,Times New Roman_MSFontService,sans-serif" font-weight="400" font-size="11" transform="matrix(0.984847 0 0 0.988324 188.731 185)">12</text></g><g clip-path="url(#clip67)"><text fill="#595959" font-family="Times New Roman,Times New Roman_MSFontService,sans-serif" font-weight="400" font-size="11" transform="matrix(0.984847 0 0 0.988324 213.083 185)">14</text></g><g clip-path="url(#clip68)"><text fill="#595959" font-family="Times New Roman,Times New Roman_MSFontService,sans-serif" font-weight="400" font-size="11" transform="matrix(0.984847 0 0 0.988324 237.436 185)">16</text></g><g clip-path="url(#clip69)"><text fill="#595959" font-family="Times New Roman,Times New Roman_MSFontService,sans-serif" font-weight="400" font-size="11" transform="matrix(0.984847 0 0 0.988324 261.789 185)">18</text></g><g clip-path="url(#clip70)"><text fill="#595959" font-family="Times New Roman,Times New Roman_MSFontService,sans-serif" font-weight="400" font-size="11" transform="matrix(0.984847 0 0 0.988324 286.141 185)">20</text></g><g clip-path="url(#clip71)"><text fill="#595959" font-family="Times New Roman,Times New Roman_MSFontService,sans-serif" font-weight="400" font-size="13" transform="matrix(6.03044e-17 -0.988324 0.984847 6.05174e-17 13.882 136)">Image distribution</text></g><g clip-path="url(#clip72)"><text fill="#595959" font-family="Times New Roman,Times New Roman_MSFontService,sans-serif" font-weight="400" font-size="13" transform="matrix(0.984847 0 0 0.988324 89.2691 202)">Number of objects on an image</text></g><g clip-path="url(#clip73)"><path d="M376.212 130 394.924 130" stroke="#4472C4" stroke-width="2.21591" stroke-linecap="round" stroke-linejoin="round" stroke-miterlimit="10" fill="none" fill-rule="evenodd" transform="matrix(1 0 0 1.00353 -236.022 -100.809)"/></g><g clip-path="url(#clip74)"><path d="M388.03 130.492C388.03 131.852 386.928 132.954 385.568 132.954 384.207 132.954 383.105 131.852 383.105 130.492 383.105 129.132 384.207 128.03 385.568 128.03 386.928 128.03 388.03 129.132 388.03 130.492Z" stroke="#4472C4" stroke-width="0.738635" stroke-linejoin="round" stroke-miterlimit="10" fill="#4472C4" transform="matrix(1 0 0 1.00353 -236.022 -100.809)"/></g><g clip-path="url(#clip75)"><text fill="#595959" font-family="Times New Roman,Times New Roman_MSFontService,sans-serif" font-weight="400" font-size="11" transform="matrix(0.984847 0 0 0.988324 160.775 34)">COCO</text></g><g clip-path="url(#clip76)"><path d="M456.969 130 475.681 130" stroke="#ED7D31" stroke-width="2.21591" stroke-linecap="round" stroke-linejoin="round" stroke-miterlimit="10" fill="none" fill-rule="evenodd" transform="matrix(1 0 0 1.00353 -236.022 -100.809)"/></g><g clip-path="url(#clip77)"><path d="M470.264 134.432 463.37 127.538M466.325 127.538 466.325 134.432M463.37 134.432 470.264 127.538" stroke="#ED7D31" stroke-width="0.738635" stroke-linejoin="round" stroke-miterlimit="10" fill="none" transform="matrix(1 0 0 1.00353 -236.022 -100.809)"/></g><g clip-path="url(#clip78)"><text fill="#595959" font-family="Times New Roman,Times New Roman_MSFontService,sans-serif" font-weight="400" font-size="11" transform="matrix(0.984847 0 0 0.988324 241.591 34)">HIOD</text></g><g clip-path="url(#clip79)"><path d="M376.212 148.712 394.924 148.712" stroke="#A5A5A5" stroke-width="2.21591" stroke-linecap="round" stroke-linejoin="round" stroke-miterlimit="10" fill="none" fill-rule="evenodd" transform="matrix(1 0 0 1.00353 -236.022 -100.809)"/></g><g clip-path="url(#clip80)"><path d="M385.568 146.25 388.522 152.159 382.613 152.159Z" stroke="#A5A5A5" stroke-width="0.738635" stroke-linejoin="round" stroke-miterlimit="10" fill="#A5A5A5" transform="matrix(1 0 0 1.00353 -236.022 -100.809)"/></g><g clip-path="url(#clip81)"><text fill="#595959" font-family="Times New Roman,Times New Roman_MSFontService,sans-serif" font-weight="400" font-size="11" transform="matrix(0.984847 0 0 0.988324 160.775 51)">OpenImages</text></g><g clip-path="url(#clip82)"><path d="M456.969 148.712 475.681 148.712" stroke="#FFC000" stroke-width="2.21591" stroke-linecap="round" stroke-linejoin="round" stroke-miterlimit="10" fill="none" fill-rule="evenodd" transform="matrix(1 0 0 1.00353 -236.022 -100.809)"/></g><g clip-path="url(#clip83)"><path d="M463.37 146.25 467.31 146.25 467.31 150.189 463.37 150.189Z" stroke="#FFC000" stroke-width="0.738635" stroke-linejoin="round" stroke-miterlimit="10" fill="#FFC000" transform="matrix(1 0 0 1.00353 -236.022 -100.809)"/></g><g clip-path="url(#clip84)"><text fill="#595959" font-family="Times New Roman,Times New Roman_MSFontService,sans-serif" font-weight="400" font-size="11" transform="matrix(0.984847 0 0 0.988324 241.591 51)">VOC</text></g><text font-family="Times New Roman,Times New Roman_MSFontService,sans-serif" font-weight="400" font-size="16" transform="matrix(0.984847 0 0 0.988324 148.539 219)">(</text><text font-family="Times New Roman,Times New Roman_MSFontService,sans-serif" font-weight="400" font-size="16" transform="matrix(0.984847 0 0 0.988324 153.463 219)">a</text><text font-family="Times New Roman,Times New Roman_MSFontService,sans-serif" font-weight="400" font-size="16" transform="matrix(0.984847 0 0 0.988324 160.85 219)">)</text><text font-family="Times New Roman,Times New Roman_MSFontService,sans-serif" font-weight="400" font-size="14" transform="matrix(0.984847 0 0 0.988324 454.176 219)">(</text><text font-family="Times New Roman,Times New Roman_MSFontService,sans-serif" font-weight="400" font-size="14" transform="matrix(0.984847 0 0 0.988324 459.1 219)">b</text><text font-family="Times New Roman,Times New Roman_MSFontService,sans-serif" font-weight="400" font-size="14" transform="matrix(0.984847 0 0 0.988324 465.624 219)">)</text></g></svg>