<svg width="422" height="260" xmlns="http://www.w3.org/2000/svg" xmlns:xlink="http://www.w3.org/1999/xlink" xml:space="preserve" overflow="hidden"><defs><clipPath id="clip0"><rect x="0" y="0" width="422" height="260"/></clipPath><clipPath id="clip1"><rect x="56" y="8" width="362" height="188"/></clipPath><clipPath id="clip2"><path d="M-103.089 300.424 202.966 123.516 209.018 134.01-97.0368 310.919Z" fill-rule="evenodd" clip-rule="evenodd"/></clipPath><clipPath id="clip3"><path d="M-67.149 300.424 238.905 123.516 244.957 134.01-61.0972 310.919Z" fill-rule="evenodd" clip-rule="evenodd"/></clipPath><clipPath id="clip4"><path d="M-31.2056 300.424 274.845 123.516 280.897 134.01-25.1538 310.919Z" fill-rule="evenodd" clip-rule="evenodd"/></clipPath><clipPath id="clip5"><path d="M4.73401 300.424 310.784 123.516 316.836 134.01 10.7858 310.919Z" fill-rule="evenodd" clip-rule="evenodd"/></clipPath><clipPath id="clip6"><path d="M40.6736 300.424 346.724 123.516 352.776 134.01 46.7253 310.919Z" fill-rule="evenodd" clip-rule="evenodd"/></clipPath><clipPath id="clip7"><path d="M76.6131 300.424 382.664 123.516 388.715 134.01 82.6649 310.919Z" fill-rule="evenodd" clip-rule="evenodd"/></clipPath><clipPath id="clip8"><path d="M112.553 300.424 418.603 123.516 424.655 134.01 118.604 310.919Z" fill-rule="evenodd" clip-rule="evenodd"/></clipPath><clipPath id="clip9"><path d="M148.492 300.424 454.543 123.516 460.595 134.01 154.544 310.919Z" fill-rule="evenodd" clip-rule="evenodd"/></clipPath><clipPath id="clip10"><path d="M184.432 300.424 490.486 123.516 496.538 134.01 190.484 310.919Z" fill-rule="evenodd" clip-rule="evenodd"/></clipPath><clipPath id="clip11"><path d="M299.253 254.829 467.435 157.613 473.486 168.107 305.305 265.323Z" fill-rule="evenodd" clip-rule="evenodd"/></clipPath><clipPath id="clip12"><rect x="3" y="-261" width="18" height="727"/></clipPath></defs><g clip-path="url(#clip0)"><path d="M601.698 1.93223 1022.92 1.93223 1022.92 261.238 601.698 261.238Z" fill="#FFFFFF" transform="matrix(1 0 0 1.00118 -601.311 -1.54762)"/><g clip-path="url(#clip1)"><path d="M658.312 164.82 1017.71 164.82" stroke="#D9D9D9" stroke-width="0.57967" stroke-miterlimit="2" fill="none" transform="matrix(1 0 0 1.00118 -601.311 -1.54762)"/><path d="M658.312 134.29 1017.71 134.29" stroke="#D9D9D9" stroke-width="0.57967" stroke-miterlimit="2" fill="none" transform="matrix(1 0 0 1.00118 -601.311 -1.54762)"/><path d="M658.312 103.761 1017.71 103.761" stroke="#D9D9D9" stroke-width="0.57967" stroke-miterlimit="2" fill="none" transform="matrix(1 0 0 1.00118 -601.311 -1.54762)"/><path d="M658.312 72.8452 1017.71 72.8452" stroke="#D9D9D9" stroke-width="0.57967" stroke-miterlimit="2" fill="none" transform="matrix(1 0 0 1.00118 -601.311 -1.54762)"/><path d="M658.312 42.3159 1017.71 42.3159" stroke="#D9D9D9" stroke-width="0.57967" stroke-miterlimit="2" fill="none" transform="matrix(1 0 0 1.00118 -601.311 -1.54762)"/><path d="M658.312 11.7866 1017.71 11.7866" stroke="#D9D9D9" stroke-width="0.57967" stroke-miterlimit="2" fill="none" transform="matrix(1 0 0 1.00118 -601.311 -1.54762)"/><path d="M657.733 35.1667 693.672 35.1667 693.672 195.156 657.733 195.156Z" fill="#9DC3E6" transform="matrix(1 0 0 1.00118 -601.311 -1.54762)"/><path d="M657.733 35.1667 693.672 35.1667 693.672 195.156 657.733 195.156Z" stroke="#262626" stroke-width="0.772894" stroke-linecap="round" stroke-miterlimit="2" fill="none" transform="matrix(1 0 0 1.00118 -601.311 -1.54762)"/><path d="M693.672 153.033 729.612 153.033 729.612 195.156 693.672 195.156Z" fill="#9DC3E6" transform="matrix(1 0 0 1.00118 -601.311 -1.54762)"/><path d="M693.672 153.033 729.612 153.033 729.612 195.156 693.672 195.156Z" stroke="#262626" stroke-width="0.772894" stroke-linecap="round" stroke-miterlimit="2" fill="none" transform="matrix(1 0 0 1.00118 -601.311 -1.54762)"/><path d="M729.612 169.65 765.551 169.65 765.551 195.156 729.612 195.156Z" fill="#9DC3E6" transform="matrix(1 0 0 1.00118 -601.311 -1.54762)"/><path d="M729.612 169.65 765.551 169.65 765.551 195.156 729.612 195.156Z" stroke="#262626" stroke-width="0.772894" stroke-linecap="round" stroke-miterlimit="2" fill="none" transform="matrix(1 0 0 1.00118 -601.311 -1.54762)"/><path d="M765.551 179.311 801.491 179.311 801.491 195.156 765.551 195.156Z" fill="#9DC3E6" transform="matrix(1 0 0 1.00118 -601.311 -1.54762)"/><path d="M765.551 179.311 801.491 179.311 801.491 195.156 765.551 195.156Z" stroke="#262626" stroke-width="0.772894" stroke-linecap="round" stroke-miterlimit="2" fill="none" transform="matrix(1 0 0 1.00118 -601.311 -1.54762)"/><path d="M801.491 183.176 837.43 183.176 837.43 195.156 801.491 195.156Z" fill="#9DC3E6" transform="matrix(1 0 0 1.00118 -601.311 -1.54762)"/><path d="M801.491 183.176 837.43 183.176 837.43 195.156 801.491 195.156Z" stroke="#262626" stroke-width="0.772894" stroke-linecap="round" stroke-miterlimit="2" fill="none" transform="matrix(1 0 0 1.00118 -601.311 -1.54762)"/><path d="M837.43 186.654 873.37 186.654 873.37 195.156 837.43 195.156Z" fill="#9DC3E6" transform="matrix(1 0 0 1.00118 -601.311 -1.54762)"/><path d="M837.43 186.654 873.37 186.654 873.37 195.156 837.43 195.156Z" stroke="#262626" stroke-width="0.772894" stroke-linecap="round" stroke-miterlimit="2" fill="none" transform="matrix(1 0 0 1.00118 -601.311 -1.54762)"/><path d="M873.37 188.586 909.31 188.586 909.31 195.156 873.37 195.156Z" fill="#9DC3E6" transform="matrix(1 0 0 1.00118 -601.311 -1.54762)"/><path d="M873.37 188.586 909.31 188.586 909.31 195.156 873.37 195.156Z" stroke="#262626" stroke-width="0.772894" stroke-linecap="round" stroke-miterlimit="2" fill="none" transform="matrix(1 0 0 1.00118 -601.311 -1.54762)"/><path d="M909.31 189.745 945.249 189.745 945.249 195.156 909.31 195.156Z" fill="#9DC3E6" transform="matrix(1 0 0 1.00118 -601.311 -1.54762)"/><path d="M909.31 189.745 945.249 189.745 945.249 195.156 909.31 195.156Z" stroke="#262626" stroke-width="0.772894" stroke-linecap="round" stroke-miterlimit="2" fill="none" transform="matrix(1 0 0 1.00118 -601.311 -1.54762)"/><path d="M945.249 190.518 981.189 190.518 981.189 195.156 945.249 195.156Z" fill="#9DC3E6" transform="matrix(1 0 0 1.00118 -601.311 -1.54762)"/><path d="M945.249 190.518 981.189 190.518 981.189 195.156 945.249 195.156Z" stroke="#262626" stroke-width="0.772894" stroke-linecap="round" stroke-miterlimit="2" fill="none" transform="matrix(1 0 0 1.00118 -601.311 -1.54762)"/><path d="M981.189 158.83 1017.13 158.83 1017.13 195.156 981.189 195.156Z" fill="#9DC3E6" transform="matrix(1 0 0 1.00118 -601.311 -1.54762)"/><path d="M981.189 158.83 1017.13 158.83 1017.13 195.156 981.189 195.156Z" stroke="#262626" stroke-width="0.772894" stroke-linecap="round" stroke-miterlimit="2" fill="none" transform="matrix(1 0 0 1.00118 -601.311 -1.54762)"/></g><path d="M658.312 195.349 1017.71 195.349" stroke="#D9D9D9" stroke-width="0.57967" stroke-miterlimit="2" fill="none" transform="matrix(1 0 0 1.00118 -601.311 -1.54762)"/><text fill="#595959" font-family="Times New Roman,Times New Roman_MSFontService,sans-serif" font-weight="400" font-size="36" transform="matrix(0.386447 0 0 0.386905 165.701 253)">Instance</text><text fill="#595959" font-family="Times New Roman,Times New Roman_MSFontService,sans-serif" font-weight="400" font-size="36" transform="matrix(0.386447 0 0 0.386905 210.142 253)">_</text><text fill="#595959" font-family="Times New Roman,Times New Roman_MSFontService,sans-serif" font-weight="400" font-size="36" transform="matrix(0.386447 0 0 0.386905 217.098 253)">size</text><text fill="#595959" font-family="Times New Roman,Times New Roman_MSFontService,sans-serif" font-weight="400" font-size="36" transform="matrix(0.386447 0 0 0.386905 238.353 253)">/</text><text fill="#595959" font-family="Times New Roman,Times New Roman_MSFontService,sans-serif" font-weight="400" font-size="36" transform="matrix(0.386447 0 0 0.386905 242.217 253)">Image</text><text fill="#595959" font-family="Times New Roman,Times New Roman_MSFontService,sans-serif" font-weight="400" font-size="36" transform="matrix(0.386447 0 0 0.386905 276.225 253)">_</text><text fill="#595959" font-family="Times New Roman,Times New Roman_MSFontService,sans-serif" font-weight="400" font-size="36" transform="matrix(0.386447 0 0 0.386905 283.181 253)">size</text><g clip-path="url(#clip2)"><text fill="#595959" font-family="Times New Roman,Times New Roman_MSFontService,sans-serif" font-weight="400" font-size="28" transform="matrix(0.334673 -0.193452 0.193223 0.335069 32.9369 233)">[</text><text fill="#595959" font-family="Times New Roman,Times New Roman_MSFontService,sans-serif" font-weight="400" font-size="28" transform="matrix(0.334673 -0.193452 0.193223 0.335069 35.9489 231)">0</text><text fill="#595959" font-family="Times New Roman,Times New Roman_MSFontService,sans-serif" font-weight="400" font-size="28" transform="matrix(0.334673 -0.193452 0.193223 0.335069 40.6343 228)">.</text><text fill="#595959" font-family="Times New Roman,Times New Roman_MSFontService,sans-serif" font-weight="400" font-size="28" transform="matrix(0.334673 -0.193452 0.193223 0.335069 42.977 227)">00</text><text fill="#595959" font-family="Times New Roman,Times New Roman_MSFontService,sans-serif" font-weight="400" font-size="28" transform="matrix(0.334673 -0.193452 0.193223 0.335069 52.3479 222)">, </text><text fill="#595959" font-family="Times New Roman,Times New Roman_MSFontService,sans-serif" font-weight="400" font-size="28" transform="matrix(0.334673 -0.193452 0.193223 0.335069 57.0333 219)">0</text><text fill="#595959" font-family="Times New Roman,Times New Roman_MSFontService,sans-serif" font-weight="400" font-size="28" transform="matrix(0.334673 -0.193452 0.193223 0.335069 61.7187 216)">.</text><text fill="#595959" font-family="Times New Roman,Times New Roman_MSFontService,sans-serif" font-weight="400" font-size="28" transform="matrix(0.334673 -0.193452 0.193223 0.335069 64.0614 215)">01</text><text fill="#595959" font-family="Times New Roman,Times New Roman_MSFontService,sans-serif" font-weight="400" font-size="28" transform="matrix(0.334673 -0.193452 0.193223 0.335069 73.4323 210)">]</text></g><g clip-path="url(#clip3)"><text fill="#595959" font-family="Times New Roman,Times New Roman_MSFontService,sans-serif" font-weight="400" font-size="28" transform="matrix(0.334673 -0.193452 0.193223 0.335069 68.8764 233)">(</text><text fill="#595959" font-family="Times New Roman,Times New Roman_MSFontService,sans-serif" font-weight="400" font-size="28" transform="matrix(0.334673 -0.193452 0.193223 0.335069 71.8885 231)">0</text><text fill="#595959" font-family="Times New Roman,Times New Roman_MSFontService,sans-serif" font-weight="400" font-size="28" transform="matrix(0.334673 -0.193452 0.193223 0.335069 76.5739 228)">.</text><text fill="#595959" font-family="Times New Roman,Times New Roman_MSFontService,sans-serif" font-weight="400" font-size="28" transform="matrix(0.334673 -0.193452 0.193223 0.335069 78.9166 227)">01</text><text fill="#595959" font-family="Times New Roman,Times New Roman_MSFontService,sans-serif" font-weight="400" font-size="28" transform="matrix(0.334673 -0.193452 0.193223 0.335069 88.2874 222)">, </text><text fill="#595959" font-family="Times New Roman,Times New Roman_MSFontService,sans-serif" font-weight="400" font-size="28" transform="matrix(0.334673 -0.193452 0.193223 0.335069 92.9729 219)">0</text><text fill="#595959" font-family="Times New Roman,Times New Roman_MSFontService,sans-serif" font-weight="400" font-size="28" transform="matrix(0.334673 -0.193452 0.193223 0.335069 97.6583 216)">.</text><text fill="#595959" font-family="Times New Roman,Times New Roman_MSFontService,sans-serif" font-weight="400" font-size="28" transform="matrix(0.334673 -0.193452 0.193223 0.335069 100.001 215)">02</text><text fill="#595959" font-family="Times New Roman,Times New Roman_MSFontService,sans-serif" font-weight="400" font-size="28" transform="matrix(0.334673 -0.193452 0.193223 0.335069 109.372 210)">]</text></g><g clip-path="url(#clip4)"><text fill="#595959" font-family="Times New Roman,Times New Roman_MSFontService,sans-serif" font-weight="400" font-size="28" transform="matrix(0.334673 -0.193452 0.193223 0.335069 104.82 233)">(</text><text fill="#595959" font-family="Times New Roman,Times New Roman_MSFontService,sans-serif" font-weight="400" font-size="28" transform="matrix(0.334673 -0.193452 0.193223 0.335069 107.832 231)">0</text><text fill="#595959" font-family="Times New Roman,Times New Roman_MSFontService,sans-serif" font-weight="400" font-size="28" transform="matrix(0.334673 -0.193452 0.193223 0.335069 112.517 228)">.</text><text fill="#595959" font-family="Times New Roman,Times New Roman_MSFontService,sans-serif" font-weight="400" font-size="28" transform="matrix(0.334673 -0.193452 0.193223 0.335069 114.86 227)">02</text><text fill="#595959" font-family="Times New Roman,Times New Roman_MSFontService,sans-serif" font-weight="400" font-size="28" transform="matrix(0.334673 -0.193452 0.193223 0.335069 124.231 222)">, </text><text fill="#595959" font-family="Times New Roman,Times New Roman_MSFontService,sans-serif" font-weight="400" font-size="28" transform="matrix(0.334673 -0.193452 0.193223 0.335069 128.916 219)">0</text><text fill="#595959" font-family="Times New Roman,Times New Roman_MSFontService,sans-serif" font-weight="400" font-size="28" transform="matrix(0.334673 -0.193452 0.193223 0.335069 133.602 216)">.</text><text fill="#595959" font-family="Times New Roman,Times New Roman_MSFontService,sans-serif" font-weight="400" font-size="28" transform="matrix(0.334673 -0.193452 0.193223 0.335069 135.944 215)">03</text><text fill="#595959" font-family="Times New Roman,Times New Roman_MSFontService,sans-serif" font-weight="400" font-size="28" transform="matrix(0.334673 -0.193452 0.193223 0.335069 145.315 210)">]</text></g><g clip-path="url(#clip5)"><text fill="#595959" font-family="Times New Roman,Times New Roman_MSFontService,sans-serif" font-weight="400" font-size="28" transform="matrix(0.334673 -0.193452 0.193223 0.335069 140.759 233)">(</text><text fill="#595959" font-family="Times New Roman,Times New Roman_MSFontService,sans-serif" font-weight="400" font-size="28" transform="matrix(0.334673 -0.193452 0.193223 0.335069 143.771 231)">0</text><text fill="#595959" font-family="Times New Roman,Times New Roman_MSFontService,sans-serif" font-weight="400" font-size="28" transform="matrix(0.334673 -0.193452 0.193223 0.335069 148.457 228)">.</text><text fill="#595959" font-family="Times New Roman,Times New Roman_MSFontService,sans-serif" font-weight="400" font-size="28" transform="matrix(0.334673 -0.193452 0.193223 0.335069 150.8 227)">03</text><text fill="#595959" font-family="Times New Roman,Times New Roman_MSFontService,sans-serif" font-weight="400" font-size="28" transform="matrix(0.334673 -0.193452 0.193223 0.335069 160.17 222)">, </text><text fill="#595959" font-family="Times New Roman,Times New Roman_MSFontService,sans-serif" font-weight="400" font-size="28" transform="matrix(0.334673 -0.193452 0.193223 0.335069 164.856 219)">0</text><text fill="#595959" font-family="Times New Roman,Times New Roman_MSFontService,sans-serif" font-weight="400" font-size="28" transform="matrix(0.334673 -0.193452 0.193223 0.335069 169.541 216)">.</text><text fill="#595959" font-family="Times New Roman,Times New Roman_MSFontService,sans-serif" font-weight="400" font-size="28" transform="matrix(0.334673 -0.193452 0.193223 0.335069 171.884 215)">04</text><text fill="#595959" font-family="Times New Roman,Times New Roman_MSFontService,sans-serif" font-weight="400" font-size="28" transform="matrix(0.334673 -0.193452 0.193223 0.335069 181.255 210)">]</text></g><g clip-path="url(#clip6)"><text fill="#595959" font-family="Times New Roman,Times New Roman_MSFontService,sans-serif" font-weight="400" font-size="28" transform="matrix(0.334673 -0.193452 0.193223 0.335069 176.699 233)">(</text><text fill="#595959" font-family="Times New Roman,Times New Roman_MSFontService,sans-serif" font-weight="400" font-size="28" transform="matrix(0.334673 -0.193452 0.193223 0.335069 179.711 231)">0</text><text fill="#595959" font-family="Times New Roman,Times New Roman_MSFontService,sans-serif" font-weight="400" font-size="28" transform="matrix(0.334673 -0.193452 0.193223 0.335069 184.396 228)">.</text><text fill="#595959" font-family="Times New Roman,Times New Roman_MSFontService,sans-serif" font-weight="400" font-size="28" transform="matrix(0.334673 -0.193452 0.193223 0.335069 186.739 227)">04</text><text fill="#595959" font-family="Times New Roman,Times New Roman_MSFontService,sans-serif" font-weight="400" font-size="28" transform="matrix(0.334673 -0.193452 0.193223 0.335069 196.11 222)">, </text><text fill="#595959" font-family="Times New Roman,Times New Roman_MSFontService,sans-serif" font-weight="400" font-size="28" transform="matrix(0.334673 -0.193452 0.193223 0.335069 200.795 219)">0</text><text fill="#595959" font-family="Times New Roman,Times New Roman_MSFontService,sans-serif" font-weight="400" font-size="28" transform="matrix(0.334673 -0.193452 0.193223 0.335069 205.481 216)">.</text><text fill="#595959" font-family="Times New Roman,Times New Roman_MSFontService,sans-serif" font-weight="400" font-size="28" transform="matrix(0.334673 -0.193452 0.193223 0.335069 207.824 215)">06</text><text fill="#595959" font-family="Times New Roman,Times New Roman_MSFontService,sans-serif" font-weight="400" font-size="28" transform="matrix(0.334673 -0.193452 0.193223 0.335069 217.194 210)">]</text></g><g clip-path="url(#clip7)"><text fill="#595959" font-family="Times New Roman,Times New Roman_MSFontService,sans-serif" font-weight="400" font-size="28" transform="matrix(0.334673 -0.193452 0.193223 0.335069 212.639 233)">(</text><text fill="#595959" font-family="Times New Roman,Times New Roman_MSFontService,sans-serif" font-weight="400" font-size="28" transform="matrix(0.334673 -0.193452 0.193223 0.335069 215.651 231)">0</text><text fill="#595959" font-family="Times New Roman,Times New Roman_MSFontService,sans-serif" font-weight="400" font-size="28" transform="matrix(0.334673 -0.193452 0.193223 0.335069 220.336 228)">.</text><text fill="#595959" font-family="Times New Roman,Times New Roman_MSFontService,sans-serif" font-weight="400" font-size="28" transform="matrix(0.334673 -0.193452 0.193223 0.335069 222.679 227)">06</text><text fill="#595959" font-family="Times New Roman,Times New Roman_MSFontService,sans-serif" font-weight="400" font-size="28" transform="matrix(0.334673 -0.193452 0.193223 0.335069 232.05 222)">, </text><text fill="#595959" font-family="Times New Roman,Times New Roman_MSFontService,sans-serif" font-weight="400" font-size="28" transform="matrix(0.334673 -0.193452 0.193223 0.335069 236.735 219)">0</text><text fill="#595959" font-family="Times New Roman,Times New Roman_MSFontService,sans-serif" font-weight="400" font-size="28" transform="matrix(0.334673 -0.193452 0.193223 0.335069 241.42 216)">.</text><text fill="#595959" font-family="Times New Roman,Times New Roman_MSFontService,sans-serif" font-weight="400" font-size="28" transform="matrix(0.334673 -0.193452 0.193223 0.335069 243.763 215)">07</text><text fill="#595959" font-family="Times New Roman,Times New Roman_MSFontService,sans-serif" font-weight="400" font-size="28" transform="matrix(0.334673 -0.193452 0.193223 0.335069 253.134 210)">]</text></g><g clip-path="url(#clip8)"><text fill="#595959" font-family="Times New Roman,Times New Roman_MSFontService,sans-serif" font-weight="400" font-size="28" transform="matrix(0.334673 -0.193452 0.193223 0.335069 248.578 233)">(</text><text fill="#595959" font-family="Times New Roman,Times New Roman_MSFontService,sans-serif" font-weight="400" font-size="28" transform="matrix(0.334673 -0.193452 0.193223 0.335069 251.59 231)">0</text><text fill="#595959" font-family="Times New Roman,Times New Roman_MSFontService,sans-serif" font-weight="400" font-size="28" transform="matrix(0.334673 -0.193452 0.193223 0.335069 256.276 228)">.</text><text fill="#595959" font-family="Times New Roman,Times New Roman_MSFontService,sans-serif" font-weight="400" font-size="28" transform="matrix(0.334673 -0.193452 0.193223 0.335069 258.618 227)">07</text><text fill="#595959" font-family="Times New Roman,Times New Roman_MSFontService,sans-serif" font-weight="400" font-size="28" transform="matrix(0.334673 -0.193452 0.193223 0.335069 267.989 222)">, </text><text fill="#595959" font-family="Times New Roman,Times New Roman_MSFontService,sans-serif" font-weight="400" font-size="28" transform="matrix(0.334673 -0.193452 0.193223 0.335069 272.675 219)">0</text><text fill="#595959" font-family="Times New Roman,Times New Roman_MSFontService,sans-serif" font-weight="400" font-size="28" transform="matrix(0.334673 -0.193452 0.193223 0.335069 277.36 216)">.</text><text fill="#595959" font-family="Times New Roman,Times New Roman_MSFontService,sans-serif" font-weight="400" font-size="28" transform="matrix(0.334673 -0.193452 0.193223 0.335069 279.703 215)">08</text><text fill="#595959" font-family="Times New Roman,Times New Roman_MSFontService,sans-serif" font-weight="400" font-size="28" transform="matrix(0.334673 -0.193452 0.193223 0.335069 289.073 210)">]</text></g><g clip-path="url(#clip9)"><text fill="#595959" font-family="Times New Roman,Times New Roman_MSFontService,sans-serif" font-weight="400" font-size="28" transform="matrix(0.334673 -0.193452 0.193223 0.335069 284.518 233)">(</text><text fill="#595959" font-family="Times New Roman,Times New Roman_MSFontService,sans-serif" font-weight="400" font-size="28" transform="matrix(0.334673 -0.193452 0.193223 0.335069 287.53 231)">0</text><text fill="#595959" font-family="Times New Roman,Times New Roman_MSFontService,sans-serif" font-weight="400" font-size="28" transform="matrix(0.334673 -0.193452 0.193223 0.335069 292.215 228)">.</text><text fill="#595959" font-family="Times New Roman,Times New Roman_MSFontService,sans-serif" font-weight="400" font-size="28" transform="matrix(0.334673 -0.193452 0.193223 0.335069 294.558 227)">08</text><text fill="#595959" font-family="Times New Roman,Times New Roman_MSFontService,sans-serif" font-weight="400" font-size="28" transform="matrix(0.334673 -0.193452 0.193223 0.335069 303.929 222)">, </text><text fill="#595959" font-family="Times New Roman,Times New Roman_MSFontService,sans-serif" font-weight="400" font-size="28" transform="matrix(0.334673 -0.193452 0.193223 0.335069 308.614 219)">0</text><text fill="#595959" font-family="Times New Roman,Times New Roman_MSFontService,sans-serif" font-weight="400" font-size="28" transform="matrix(0.334673 -0.193452 0.193223 0.335069 313.299 216)">.</text><text fill="#595959" font-family="Times New Roman,Times New Roman_MSFontService,sans-serif" font-weight="400" font-size="28" transform="matrix(0.334673 -0.193452 0.193223 0.335069 315.642 215)">09</text><text fill="#595959" font-family="Times New Roman,Times New Roman_MSFontService,sans-serif" font-weight="400" font-size="28" transform="matrix(0.334673 -0.193452 0.193223 0.335069 325.013 210)">]</text></g><g clip-path="url(#clip10)"><text fill="#595959" font-family="Times New Roman,Times New Roman_MSFontService,sans-serif" font-weight="400" font-size="28" transform="matrix(0.334673 -0.193452 0.193223 0.335069 320.457 233)">(</text><text fill="#595959" font-family="Times New Roman,Times New Roman_MSFontService,sans-serif" font-weight="400" font-size="28" transform="matrix(0.334673 -0.193452 0.193223 0.335069 323.469 231)">0</text><text fill="#595959" font-family="Times New Roman,Times New Roman_MSFontService,sans-serif" font-weight="400" font-size="28" transform="matrix(0.334673 -0.193452 0.193223 0.335069 328.155 228)">.</text><text fill="#595959" font-family="Times New Roman,Times New Roman_MSFontService,sans-serif" font-weight="400" font-size="28" transform="matrix(0.334673 -0.193452 0.193223 0.335069 330.497 227)">09</text><text fill="#595959" font-family="Times New Roman,Times New Roman_MSFontService,sans-serif" font-weight="400" font-size="28" transform="matrix(0.334673 -0.193452 0.193223 0.335069 339.868 222)">, </text><text fill="#595959" font-family="Times New Roman,Times New Roman_MSFontService,sans-serif" font-weight="400" font-size="28" transform="matrix(0.334673 -0.193452 0.193223 0.335069 344.554 219)">0</text><text fill="#595959" font-family="Times New Roman,Times New Roman_MSFontService,sans-serif" font-weight="400" font-size="28" transform="matrix(0.334673 -0.193452 0.193223 0.335069 349.239 216)">.</text><text fill="#595959" font-family="Times New Roman,Times New Roman_MSFontService,sans-serif" font-weight="400" font-size="28" transform="matrix(0.334673 -0.193452 0.193223 0.335069 351.582 215)">10</text><text fill="#595959" font-family="Times New Roman,Times New Roman_MSFontService,sans-serif" font-weight="400" font-size="28" transform="matrix(0.334673 -0.193452 0.193223 0.335069 360.953 210)">]</text></g><g clip-path="url(#clip11)"><text fill="#595959" font-family="Times New Roman,Times New Roman_MSFontService,sans-serif" font-weight="400" font-size="28" transform="matrix(0.334673 -0.193452 0.193223 0.335069 376.191 222)">&gt; </text><text fill="#595959" font-family="Times New Roman,Times New Roman_MSFontService,sans-serif" font-weight="400" font-size="28" transform="matrix(0.334673 -0.193452 0.193223 0.335069 383.888 217)">0</text><text fill="#595959" font-family="Times New Roman,Times New Roman_MSFontService,sans-serif" font-weight="400" font-size="28" transform="matrix(0.334673 -0.193452 0.193223 0.335069 388.573 215)">.</text><text fill="#595959" font-family="Times New Roman,Times New Roman_MSFontService,sans-serif" font-weight="400" font-size="28" transform="matrix(0.334673 -0.193452 0.193223 0.335069 390.916 213)">10</text></g><path d="M658.312 195.349 658.312 11.7866" stroke="#D9D9D9" stroke-width="0.57967" stroke-miterlimit="2" fill="none" transform="matrix(1 0 0 1.00118 -601.311 -1.54762)"/><g clip-path="url(#clip12)"><text fill="#595959" font-family="Times New Roman,Times New Roman_MSFontService,sans-serif" font-weight="400" font-size="36" transform="matrix(-7.09891e-17 -0.386905 0.386447 -7.10732e-17 16.6172 154)">Number of objects</text></g><text fill="#595959" font-family="Times New Roman,Times New Roman_MSFontService,sans-serif" font-weight="400" font-size="28" transform="matrix(0.386447 0 0 0.386905 46.6287 198)">0</text><text fill="#595959" font-family="Times New Roman,Times New Roman_MSFontService,sans-serif" font-weight="400" font-size="28" transform="matrix(0.386447 0 0 0.386905 30.3168 167)">5000</text><text fill="#595959" font-family="Times New Roman,Times New Roman_MSFontService,sans-serif" font-weight="400" font-size="28" transform="matrix(0.386447 0 0 0.386905 24.8794 137)">10000</text><text fill="#595959" font-family="Times New Roman,Times New Roman_MSFontService,sans-serif" font-weight="400" font-size="28" transform="matrix(0.386447 0 0 0.386905 24.8794 106)">15000</text><text fill="#595959" font-family="Times New Roman,Times New Roman_MSFontService,sans-serif" font-weight="400" font-size="28" transform="matrix(0.386447 0 0 0.386905 24.8794 75)">20000</text><text fill="#595959" font-family="Times New Roman,Times New Roman_MSFontService,sans-serif" font-weight="400" font-size="28" transform="matrix(0.386447 0 0 0.386905 24.8794 44)">25000</text><text fill="#595959" font-family="Times New Roman,Times New Roman_MSFontService,sans-serif" font-weight="400" font-size="28" transform="matrix(0.386447 0 0 0.386905 24.8794 14)">30000</text></g></svg>